<svg width="400" height="81" viewBox="0 0 400 81" fill="none" xmlns="http://www.w3.org/2000/svg">
<rect width="306" height="81" fill="white"/>
<path d="M24.766 32.883V42H23.812C23.584 42 23.44 41.889 23.38 41.667L23.254 40.686C22.858 41.124 22.414 41.478 21.922 41.748C21.43 42.012 20.866 42.144 20.23 42.144C19.732 42.144 19.291 42.063 18.907 41.901C18.529 41.733 18.211 41.499 17.953 41.199C17.695 40.899 17.5 40.536 17.368 40.11C17.242 39.684 17.179 39.213 17.179 38.697V32.883H18.781V38.697C18.781 39.387 18.937 39.921 19.249 40.299C19.567 40.677 20.05 40.866 20.698 40.866C21.172 40.866 21.613 40.755 22.021 40.533C22.435 40.305 22.816 39.993 23.164 39.597V32.883H24.766ZM28.9781 34.206C29.1761 33.984 29.3861 33.783 29.6081 33.603C29.8301 33.423 30.0641 33.27 30.3101 33.144C30.5621 33.012 30.8261 32.913 31.1021 32.847C31.3841 32.775 31.6871 32.739 32.0111 32.739C32.5091 32.739 32.9471 32.823 33.3251 32.991C33.7091 33.153 34.0271 33.387 34.2791 33.693C34.5371 33.993 34.7321 34.356 34.8641 34.782C34.9961 35.208 35.0621 35.679 35.0621 36.195V42H33.4511V36.195C33.4511 35.505 33.2921 34.971 32.9741 34.593C32.6621 34.209 32.1851 34.017 31.5431 34.017C31.0691 34.017 30.6251 34.131 30.2111 34.359C29.8031 34.587 29.4251 34.896 29.0771 35.286V42H27.4661V32.883H28.4291C28.6571 32.883 28.7981 32.994 28.8521 33.216L28.9781 34.206ZM48.7737 34.503C48.7257 34.569 48.6777 34.62 48.6297 34.656C48.5817 34.692 48.5157 34.71 48.4317 34.71C48.3417 34.71 48.2427 34.674 48.1347 34.602C48.0267 34.524 47.8917 34.44 47.7297 34.35C47.5737 34.26 47.3787 34.179 47.1447 34.107C46.9167 34.029 46.6347 33.99 46.2987 33.99C45.8487 33.99 45.4527 34.071 45.1107 34.233C44.7687 34.389 44.4807 34.617 44.2467 34.917C44.0187 35.217 43.8447 35.58 43.7247 36.006C43.6107 36.432 43.5537 36.909 43.5537 37.437C43.5537 37.989 43.6167 38.481 43.7427 38.913C43.8687 39.339 44.0457 39.699 44.2737 39.993C44.5077 40.281 44.7867 40.503 45.1107 40.659C45.4407 40.809 45.8097 40.884 46.2177 40.884C46.6077 40.884 46.9287 40.839 47.1807 40.749C47.4327 40.653 47.6397 40.548 47.8017 40.434C47.9697 40.32 48.1077 40.218 48.2157 40.128C48.3297 40.032 48.4407 39.984 48.5487 39.984C48.6807 39.984 48.7827 40.035 48.8547 40.137L49.3047 40.722C49.1067 40.968 48.8817 41.178 48.6297 41.352C48.3777 41.526 48.1047 41.673 47.8107 41.793C47.5227 41.907 47.2197 41.991 46.9017 42.045C46.5837 42.099 46.2597 42.126 45.9297 42.126C45.3597 42.126 44.8287 42.021 44.3367 41.811C43.8507 41.601 43.4277 41.298 43.0677 40.902C42.7077 40.5 42.4257 40.008 42.2217 39.426C42.0177 38.844 41.9157 38.181 41.9157 37.437C41.9157 36.759 42.0087 36.132 42.1947 35.556C42.3867 34.98 42.6627 34.485 43.0227 34.071C43.3887 33.651 43.8357 33.324 44.3637 33.09C44.8977 32.856 45.5097 32.739 46.1997 32.739C46.8417 32.739 47.4057 32.844 47.8917 33.054C48.3837 33.258 48.8187 33.549 49.1967 33.927L48.7737 34.503ZM57.1282 36.447C57.1282 36.075 57.0742 35.736 56.9662 35.43C56.8642 35.118 56.7112 34.851 56.5072 34.629C56.3092 34.401 56.0662 34.227 55.7782 34.107C55.4902 33.981 55.1632 33.918 54.7972 33.918C54.0292 33.918 53.4202 34.143 52.9702 34.593C52.5262 35.037 52.2502 35.655 52.1422 36.447H57.1282ZM58.4242 40.722C58.2262 40.962 57.9892 41.172 57.7132 41.352C57.4372 41.526 57.1402 41.67 56.8222 41.784C56.5102 41.898 56.1862 41.982 55.8502 42.036C55.5142 42.096 55.1812 42.126 54.8512 42.126C54.2212 42.126 53.6392 42.021 53.1052 41.811C52.5772 41.595 52.1182 41.283 51.7282 40.875C51.3442 40.461 51.0442 39.951 50.8282 39.345C50.6122 38.739 50.5042 38.043 50.5042 37.257C50.5042 36.621 50.6002 36.027 50.7922 35.475C50.9902 34.923 51.2722 34.446 51.6382 34.044C52.0042 33.636 52.4512 33.318 52.9792 33.09C53.5072 32.856 54.1012 32.739 54.7612 32.739C55.3072 32.739 55.8112 32.832 56.2732 33.018C56.7412 33.198 57.1432 33.462 57.4792 33.81C57.8212 34.152 58.0882 34.578 58.2802 35.088C58.4722 35.592 58.5682 36.168 58.5682 36.816C58.5682 37.068 58.5412 37.236 58.4872 37.32C58.4332 37.404 58.3312 37.446 58.1812 37.446H52.0882C52.1062 38.022 52.1842 38.523 52.3222 38.949C52.4662 39.375 52.6642 39.732 52.9162 40.02C53.1682 40.302 53.4682 40.515 53.8162 40.659C54.1642 40.797 54.5542 40.866 54.9862 40.866C55.3882 40.866 55.7332 40.821 56.0212 40.731C56.3152 40.635 56.5672 40.533 56.7772 40.425C56.9872 40.317 57.1612 40.218 57.2992 40.128C57.4432 40.032 57.5662 39.984 57.6682 39.984C57.8002 39.984 57.9022 40.035 57.9742 40.137L58.4242 40.722ZM62.208 34.206C62.406 33.984 62.616 33.783 62.838 33.603C63.06 33.423 63.294 33.27 63.54 33.144C63.792 33.012 64.056 32.913 64.332 32.847C64.614 32.775 64.917 32.739 65.241 32.739C65.739 32.739 66.177 32.823 66.555 32.991C66.939 33.153 67.257 33.387 67.509 33.693C67.767 33.993 67.962 34.356 68.094 34.782C68.226 35.208 68.292 35.679 68.292 36.195V42H66.681V36.195C66.681 35.505 66.522 34.971 66.204 34.593C65.892 34.209 65.415 34.017 64.773 34.017C64.299 34.017 63.855 34.131 63.441 34.359C63.033 34.587 62.655 34.896 62.307 35.286V42H60.696V32.883H61.659C61.887 32.883 62.028 32.994 62.082 33.216L62.208 34.206ZM73.569 42.144C72.849 42.144 72.294 41.943 71.904 41.541C71.52 41.139 71.328 40.56 71.328 39.804V34.224H70.23C70.134 34.224 70.053 34.197 69.987 34.143C69.921 34.083 69.888 33.993 69.888 33.873V33.234L71.382 33.045L71.751 30.228C71.769 30.138 71.808 30.066 71.868 30.012C71.934 29.952 72.018 29.922 72.12 29.922H72.93V33.063H75.567V34.224H72.93V39.696C72.93 40.08 73.023 40.365 73.209 40.551C73.395 40.737 73.635 40.83 73.929 40.83C74.097 40.83 74.241 40.809 74.361 40.767C74.487 40.719 74.595 40.668 74.685 40.614C74.775 40.56 74.85 40.512 74.91 40.47C74.976 40.422 75.033 40.398 75.081 40.398C75.165 40.398 75.24 40.449 75.306 40.551L75.774 41.316C75.498 41.574 75.165 41.778 74.775 41.928C74.385 42.072 73.983 42.144 73.569 42.144ZM78.9022 34.71C79.1902 34.086 79.5442 33.6 79.9642 33.252C80.3842 32.898 80.8972 32.721 81.5032 32.721C81.6952 32.721 81.8782 32.742 82.0522 32.784C82.2322 32.826 82.3912 32.892 82.5292 32.982L82.4122 34.179C82.3762 34.329 82.2862 34.404 82.1422 34.404C82.0582 34.404 81.9352 34.386 81.7732 34.35C81.6112 34.314 81.4282 34.296 81.2242 34.296C80.9362 34.296 80.6782 34.338 80.4502 34.422C80.2282 34.506 80.0272 34.632 79.8472 34.8C79.6732 34.962 79.5142 35.166 79.3702 35.412C79.2322 35.652 79.1062 35.928 78.9922 36.24V42H77.3812V32.883H78.2992C78.4732 32.883 78.5932 32.916 78.6592 32.982C78.7252 33.048 78.7702 33.162 78.7942 33.324L78.9022 34.71ZM89.8307 36.447C89.8307 36.075 89.7767 35.736 89.6687 35.43C89.5667 35.118 89.4137 34.851 89.2097 34.629C89.0117 34.401 88.7687 34.227 88.4807 34.107C88.1927 33.981 87.8657 33.918 87.4997 33.918C86.7317 33.918 86.1227 34.143 85.6727 34.593C85.2287 35.037 84.9527 35.655 84.8447 36.447H89.8307ZM91.1267 40.722C90.9287 40.962 90.6917 41.172 90.4157 41.352C90.1397 41.526 89.8427 41.67 89.5247 41.784C89.2127 41.898 88.8887 41.982 88.5527 42.036C88.2167 42.096 87.8837 42.126 87.5537 42.126C86.9237 42.126 86.3417 42.021 85.8077 41.811C85.2797 41.595 84.8207 41.283 84.4307 40.875C84.0467 40.461 83.7467 39.951 83.5307 39.345C83.3147 38.739 83.2067 38.043 83.2067 37.257C83.2067 36.621 83.3027 36.027 83.4947 35.475C83.6927 34.923 83.9747 34.446 84.3407 34.044C84.7067 33.636 85.1537 33.318 85.6817 33.09C86.2097 32.856 86.8037 32.739 87.4637 32.739C88.0097 32.739 88.5137 32.832 88.9757 33.018C89.4437 33.198 89.8457 33.462 90.1817 33.81C90.5237 34.152 90.7907 34.578 90.9827 35.088C91.1747 35.592 91.2707 36.168 91.2707 36.816C91.2707 37.068 91.2437 37.236 91.1897 37.32C91.1357 37.404 91.0337 37.446 90.8837 37.446H84.7907C84.8087 38.022 84.8867 38.523 85.0247 38.949C85.1687 39.375 85.3667 39.732 85.6187 40.02C85.8707 40.302 86.1707 40.515 86.5187 40.659C86.8667 40.797 87.2567 40.866 87.6887 40.866C88.0907 40.866 88.4357 40.821 88.7237 40.731C89.0177 40.635 89.2697 40.533 89.4797 40.425C89.6897 40.317 89.8637 40.218 90.0017 40.128C90.1457 40.032 90.2687 39.984 90.3707 39.984C90.5027 39.984 90.6047 40.035 90.6767 40.137L91.1267 40.722ZM104.509 34.503C104.461 34.569 104.413 34.62 104.365 34.656C104.317 34.692 104.251 34.71 104.167 34.71C104.077 34.71 103.978 34.674 103.87 34.602C103.762 34.524 103.627 34.44 103.465 34.35C103.309 34.26 103.114 34.179 102.88 34.107C102.652 34.029 102.37 33.99 102.034 33.99C101.584 33.99 101.188 34.071 100.846 34.233C100.504 34.389 100.216 34.617 99.9819 34.917C99.7539 35.217 99.5799 35.58 99.4599 36.006C99.3459 36.432 99.2889 36.909 99.2889 37.437C99.2889 37.989 99.3519 38.481 99.4779 38.913C99.6039 39.339 99.7809 39.699 100.009 39.993C100.243 40.281 100.522 40.503 100.846 40.659C101.176 40.809 101.545 40.884 101.953 40.884C102.343 40.884 102.664 40.839 102.916 40.749C103.168 40.653 103.375 40.548 103.537 40.434C103.705 40.32 103.843 40.218 103.951 40.128C104.065 40.032 104.176 39.984 104.284 39.984C104.416 39.984 104.518 40.035 104.59 40.137L105.04 40.722C104.842 40.968 104.617 41.178 104.365 41.352C104.113 41.526 103.84 41.673 103.546 41.793C103.258 41.907 102.955 41.991 102.637 42.045C102.319 42.099 101.995 42.126 101.665 42.126C101.095 42.126 100.564 42.021 100.072 41.811C99.5859 41.601 99.1629 41.298 98.8029 40.902C98.4429 40.5 98.1609 40.008 97.9569 39.426C97.7529 38.844 97.6509 38.181 97.6509 37.437C97.6509 36.759 97.7439 36.132 97.9299 35.556C98.1219 34.98 98.3979 34.485 98.7579 34.071C99.1239 33.651 99.5709 33.324 100.099 33.09C100.633 32.856 101.245 32.739 101.935 32.739C102.577 32.739 103.141 32.844 103.627 33.054C104.119 33.258 104.554 33.549 104.932 33.927L104.509 34.503ZM110.604 32.739C111.27 32.739 111.87 32.85 112.404 33.072C112.938 33.294 113.394 33.609 113.772 34.017C114.15 34.425 114.438 34.92 114.636 35.502C114.84 36.078 114.942 36.723 114.942 37.437C114.942 38.157 114.84 38.805 114.636 39.381C114.438 39.957 114.15 40.449 113.772 40.857C113.394 41.265 112.938 41.58 112.404 41.802C111.87 42.018 111.27 42.126 110.604 42.126C109.932 42.126 109.326 42.018 108.786 41.802C108.252 41.58 107.796 41.265 107.418 40.857C107.04 40.449 106.749 39.957 106.545 39.381C106.347 38.805 106.248 38.157 106.248 37.437C106.248 36.723 106.347 36.078 106.545 35.502C106.749 34.92 107.04 34.425 107.418 34.017C107.796 33.609 108.252 33.294 108.786 33.072C109.326 32.85 109.932 32.739 110.604 32.739ZM110.604 40.875C111.504 40.875 112.176 40.575 112.62 39.975C113.064 39.369 113.286 38.526 113.286 37.446C113.286 36.36 113.064 35.514 112.62 34.908C112.176 34.302 111.504 33.999 110.604 33.999C110.148 33.999 109.749 34.077 109.407 34.233C109.071 34.389 108.789 34.614 108.561 34.908C108.339 35.202 108.171 35.565 108.057 35.997C107.949 36.423 107.895 36.906 107.895 37.446C107.895 38.526 108.117 39.369 108.561 39.975C109.011 40.575 109.692 40.875 110.604 40.875ZM117.134 42V32.883H118.097C118.325 32.883 118.466 32.994 118.52 33.216L118.637 34.152C118.973 33.738 119.351 33.399 119.771 33.135C120.191 32.871 120.677 32.739 121.229 32.739C121.841 32.739 122.336 32.91 122.714 33.252C123.098 33.594 123.374 34.056 123.542 34.638C123.674 34.308 123.842 34.023 124.046 33.783C124.256 33.543 124.49 33.345 124.748 33.189C125.006 33.033 125.279 32.919 125.567 32.847C125.861 32.775 126.158 32.739 126.458 32.739C126.938 32.739 127.364 32.817 127.736 32.973C128.114 33.123 128.432 33.345 128.69 33.639C128.954 33.933 129.155 34.296 129.293 34.728C129.431 35.154 129.5 35.643 129.5 36.195V42H127.889V36.195C127.889 35.481 127.733 34.941 127.421 34.575C127.109 34.203 126.659 34.017 126.071 34.017C125.807 34.017 125.555 34.065 125.315 34.161C125.081 34.251 124.874 34.386 124.694 34.566C124.514 34.746 124.37 34.974 124.262 35.25C124.16 35.52 124.109 35.835 124.109 36.195V42H122.498V36.195C122.498 35.463 122.351 34.917 122.057 34.557C121.763 34.197 121.334 34.017 120.77 34.017C120.374 34.017 120.008 34.125 119.672 34.341C119.336 34.551 119.027 34.839 118.745 35.205V42H117.134ZM132.095 42V32.883H133.058C133.286 32.883 133.427 32.994 133.481 33.216L133.598 34.152C133.934 33.738 134.312 33.399 134.732 33.135C135.152 32.871 135.638 32.739 136.19 32.739C136.802 32.739 137.297 32.91 137.675 33.252C138.059 33.594 138.335 34.056 138.503 34.638C138.635 34.308 138.803 34.023 139.007 33.783C139.217 33.543 139.451 33.345 139.709 33.189C139.967 33.033 140.24 32.919 140.528 32.847C140.822 32.775 141.119 32.739 141.419 32.739C141.899 32.739 142.325 32.817 142.697 32.973C143.075 33.123 143.393 33.345 143.651 33.639C143.915 33.933 144.116 34.296 144.254 34.728C144.392 35.154 144.461 35.643 144.461 36.195V42H142.85V36.195C142.85 35.481 142.694 34.941 142.382 34.575C142.07 34.203 141.62 34.017 141.032 34.017C140.768 34.017 140.516 34.065 140.276 34.161C140.042 34.251 139.835 34.386 139.655 34.566C139.475 34.746 139.331 34.974 139.223 35.25C139.121 35.52 139.07 35.835 139.07 36.195V42H137.459V36.195C137.459 35.463 137.312 34.917 137.018 34.557C136.724 34.197 136.295 34.017 135.731 34.017C135.335 34.017 134.969 34.125 134.633 34.341C134.297 34.551 133.988 34.839 133.706 35.205V42H132.095ZM153.158 36.447C153.158 36.075 153.104 35.736 152.996 35.43C152.894 35.118 152.741 34.851 152.537 34.629C152.339 34.401 152.096 34.227 151.808 34.107C151.52 33.981 151.193 33.918 150.827 33.918C150.059 33.918 149.45 34.143 149 34.593C148.556 35.037 148.28 35.655 148.172 36.447H153.158ZM154.454 40.722C154.256 40.962 154.019 41.172 153.743 41.352C153.467 41.526 153.17 41.67 152.852 41.784C152.54 41.898 152.216 41.982 151.88 42.036C151.544 42.096 151.211 42.126 150.881 42.126C150.251 42.126 149.669 42.021 149.135 41.811C148.607 41.595 148.148 41.283 147.758 40.875C147.374 40.461 147.074 39.951 146.858 39.345C146.642 38.739 146.534 38.043 146.534 37.257C146.534 36.621 146.63 36.027 146.822 35.475C147.02 34.923 147.302 34.446 147.668 34.044C148.034 33.636 148.481 33.318 149.009 33.09C149.537 32.856 150.131 32.739 150.791 32.739C151.337 32.739 151.841 32.832 152.303 33.018C152.771 33.198 153.173 33.462 153.509 33.81C153.851 34.152 154.118 34.578 154.31 35.088C154.502 35.592 154.598 36.168 154.598 36.816C154.598 37.068 154.571 37.236 154.517 37.32C154.463 37.404 154.361 37.446 154.211 37.446H148.118C148.136 38.022 148.214 38.523 148.352 38.949C148.496 39.375 148.694 39.732 148.946 40.02C149.198 40.302 149.498 40.515 149.846 40.659C150.194 40.797 150.584 40.866 151.016 40.866C151.418 40.866 151.763 40.821 152.051 40.731C152.345 40.635 152.597 40.533 152.807 40.425C153.017 40.317 153.191 40.218 153.329 40.128C153.473 40.032 153.596 39.984 153.698 39.984C153.83 39.984 153.932 40.035 154.004 40.137L154.454 40.722ZM158.247 34.71C158.535 34.086 158.889 33.6 159.309 33.252C159.729 32.898 160.242 32.721 160.848 32.721C161.04 32.721 161.223 32.742 161.397 32.784C161.577 32.826 161.736 32.892 161.874 32.982L161.757 34.179C161.721 34.329 161.631 34.404 161.487 34.404C161.403 34.404 161.28 34.386 161.118 34.35C160.956 34.314 160.773 34.296 160.569 34.296C160.281 34.296 160.023 34.338 159.795 34.422C159.573 34.506 159.372 34.632 159.192 34.8C159.018 34.962 158.859 35.166 158.715 35.412C158.577 35.652 158.451 35.928 158.337 36.24V42H156.726V32.883H157.644C157.818 32.883 157.938 32.916 158.004 32.982C158.07 33.048 158.115 33.162 158.139 33.324L158.247 34.71ZM169.418 34.503C169.37 34.569 169.322 34.62 169.274 34.656C169.226 34.692 169.16 34.71 169.076 34.71C168.986 34.71 168.887 34.674 168.779 34.602C168.671 34.524 168.536 34.44 168.374 34.35C168.218 34.26 168.023 34.179 167.789 34.107C167.561 34.029 167.279 33.99 166.943 33.99C166.493 33.99 166.097 34.071 165.755 34.233C165.413 34.389 165.125 34.617 164.891 34.917C164.663 35.217 164.489 35.58 164.369 36.006C164.255 36.432 164.198 36.909 164.198 37.437C164.198 37.989 164.261 38.481 164.387 38.913C164.513 39.339 164.69 39.699 164.918 39.993C165.152 40.281 165.431 40.503 165.755 40.659C166.085 40.809 166.454 40.884 166.862 40.884C167.252 40.884 167.573 40.839 167.825 40.749C168.077 40.653 168.284 40.548 168.446 40.434C168.614 40.32 168.752 40.218 168.86 40.128C168.974 40.032 169.085 39.984 169.193 39.984C169.325 39.984 169.427 40.035 169.499 40.137L169.949 40.722C169.751 40.968 169.526 41.178 169.274 41.352C169.022 41.526 168.749 41.673 168.455 41.793C168.167 41.907 167.864 41.991 167.546 42.045C167.228 42.099 166.904 42.126 166.574 42.126C166.004 42.126 165.473 42.021 164.981 41.811C164.495 41.601 164.072 41.298 163.712 40.902C163.352 40.5 163.07 40.008 162.866 39.426C162.662 38.844 162.56 38.181 162.56 37.437C162.56 36.759 162.653 36.132 162.839 35.556C163.031 34.98 163.307 34.485 163.667 34.071C164.033 33.651 164.48 33.324 165.008 33.09C165.542 32.856 166.154 32.739 166.844 32.739C167.486 32.739 168.05 32.844 168.536 33.054C169.028 33.258 169.463 33.549 169.841 33.927L169.418 34.503ZM173.521 32.883V42H171.919V32.883H173.521ZM173.863 30.021C173.863 30.177 173.83 30.324 173.764 30.462C173.704 30.594 173.62 30.714 173.512 30.822C173.41 30.924 173.287 31.005 173.143 31.065C173.005 31.125 172.858 31.155 172.702 31.155C172.546 31.155 172.399 31.125 172.261 31.065C172.129 31.005 172.012 30.924 171.91 30.822C171.808 30.714 171.727 30.594 171.667 30.462C171.607 30.324 171.577 30.177 171.577 30.021C171.577 29.865 171.607 29.718 171.667 29.58C171.727 29.436 171.808 29.313 171.91 29.211C172.012 29.103 172.129 29.019 172.261 28.959C172.399 28.899 172.546 28.869 172.702 28.869C172.858 28.869 173.005 28.899 173.143 28.959C173.287 29.019 173.41 29.103 173.512 29.211C173.62 29.313 173.704 29.436 173.764 29.58C173.83 29.718 173.863 29.865 173.863 30.021ZM181.254 37.896C180.516 37.92 179.886 37.98 179.364 38.076C178.848 38.166 178.425 38.286 178.095 38.436C177.771 38.586 177.534 38.763 177.384 38.967C177.24 39.171 177.168 39.399 177.168 39.651C177.168 39.891 177.207 40.098 177.285 40.272C177.363 40.446 177.468 40.59 177.6 40.704C177.738 40.812 177.897 40.893 178.077 40.947C178.263 40.995 178.461 41.019 178.671 41.019C178.953 41.019 179.211 40.992 179.445 40.938C179.679 40.878 179.898 40.794 180.102 40.686C180.312 40.578 180.51 40.449 180.696 40.299C180.888 40.149 181.074 39.978 181.254 39.786V37.896ZM176.079 34.17C176.583 33.684 177.126 33.321 177.708 33.081C178.29 32.841 178.935 32.721 179.643 32.721C180.153 32.721 180.606 32.805 181.002 32.973C181.398 33.141 181.731 33.375 182.001 33.675C182.271 33.975 182.475 34.338 182.613 34.764C182.751 35.19 182.82 35.658 182.82 36.168V42H182.109C181.953 42 181.833 41.976 181.749 41.928C181.665 41.874 181.599 41.772 181.551 41.622L181.371 40.758C181.131 40.98 180.897 41.178 180.669 41.352C180.441 41.52 180.201 41.664 179.949 41.784C179.697 41.898 179.427 41.985 179.139 42.045C178.857 42.111 178.542 42.144 178.194 42.144C177.84 42.144 177.507 42.096 177.195 42C176.883 41.898 176.61 41.748 176.376 41.55C176.148 41.352 175.965 41.103 175.827 40.803C175.695 40.497 175.629 40.137 175.629 39.723C175.629 39.363 175.728 39.018 175.926 38.688C176.124 38.352 176.445 38.055 176.889 37.797C177.333 37.539 177.912 37.329 178.626 37.167C179.34 36.999 180.216 36.903 181.254 36.879V36.168C181.254 35.46 181.101 34.926 180.795 34.566C180.489 34.2 180.042 34.017 179.454 34.017C179.058 34.017 178.725 34.068 178.455 34.17C178.191 34.266 177.96 34.377 177.762 34.503C177.57 34.623 177.402 34.734 177.258 34.836C177.12 34.932 176.982 34.98 176.844 34.98C176.736 34.98 176.643 34.953 176.565 34.899C176.487 34.839 176.421 34.767 176.367 34.683L176.079 34.17ZM187.076 28.743V42H185.474V28.743H187.076ZM199.91 34.386C199.838 34.518 199.727 34.584 199.577 34.584C199.487 34.584 199.385 34.551 199.271 34.485C199.157 34.419 199.016 34.347 198.848 34.269C198.686 34.185 198.491 34.11 198.263 34.044C198.035 33.972 197.765 33.936 197.453 33.936C197.183 33.936 196.94 33.972 196.724 34.044C196.508 34.11 196.322 34.203 196.166 34.323C196.016 34.443 195.899 34.584 195.815 34.746C195.737 34.902 195.698 35.073 195.698 35.259C195.698 35.493 195.764 35.688 195.896 35.844C196.034 36 196.214 36.135 196.436 36.249C196.658 36.363 196.91 36.465 197.192 36.555C197.474 36.639 197.762 36.732 198.056 36.834C198.356 36.93 198.647 37.038 198.929 37.158C199.211 37.278 199.463 37.428 199.685 37.608C199.907 37.788 200.084 38.01 200.216 38.274C200.354 38.532 200.423 38.844 200.423 39.21C200.423 39.63 200.348 40.02 200.198 40.38C200.048 40.734 199.826 41.043 199.532 41.307C199.238 41.565 198.878 41.769 198.452 41.919C198.026 42.069 197.534 42.144 196.976 42.144C196.34 42.144 195.764 42.042 195.248 41.838C194.732 41.628 194.294 41.361 193.934 41.037L194.312 40.425C194.36 40.347 194.417 40.287 194.483 40.245C194.549 40.203 194.633 40.182 194.735 40.182C194.843 40.182 194.957 40.224 195.077 40.308C195.197 40.392 195.341 40.485 195.509 40.587C195.683 40.689 195.893 40.782 196.139 40.866C196.385 40.95 196.691 40.992 197.057 40.992C197.369 40.992 197.642 40.953 197.876 40.875C198.11 40.791 198.305 40.68 198.461 40.542C198.617 40.404 198.731 40.245 198.803 40.065C198.881 39.885 198.92 39.693 198.92 39.489C198.92 39.237 198.851 39.03 198.713 38.868C198.581 38.7 198.404 38.559 198.182 38.445C197.96 38.325 197.705 38.223 197.417 38.139C197.135 38.049 196.844 37.956 196.544 37.86C196.25 37.764 195.959 37.656 195.671 37.536C195.389 37.41 195.137 37.254 194.915 37.068C194.693 36.882 194.513 36.654 194.375 36.384C194.243 36.108 194.177 35.775 194.177 35.385C194.177 35.037 194.249 34.704 194.393 34.386C194.537 34.062 194.747 33.78 195.023 33.54C195.299 33.294 195.638 33.099 196.04 32.955C196.442 32.811 196.901 32.739 197.417 32.739C198.017 32.739 198.554 32.835 199.028 33.027C199.508 33.213 199.922 33.471 200.27 33.801L199.91 34.386ZM204.239 32.883V42H202.637V32.883H204.239ZM204.581 30.021C204.581 30.177 204.548 30.324 204.482 30.462C204.422 30.594 204.338 30.714 204.23 30.822C204.128 30.924 204.005 31.005 203.861 31.065C203.723 31.125 203.576 31.155 203.42 31.155C203.264 31.155 203.117 31.125 202.979 31.065C202.847 31.005 202.73 30.924 202.628 30.822C202.526 30.714 202.445 30.594 202.385 30.462C202.325 30.324 202.295 30.177 202.295 30.021C202.295 29.865 202.325 29.718 202.385 29.58C202.445 29.436 202.526 29.313 202.628 29.211C202.73 29.103 202.847 29.019 202.979 28.959C203.117 28.899 203.264 28.869 203.42 28.869C203.576 28.869 203.723 28.899 203.861 28.959C204.005 29.019 204.128 29.103 204.23 29.211C204.338 29.313 204.422 29.436 204.482 29.58C204.548 29.718 204.581 29.865 204.581 30.021ZM209.83 42.144C209.11 42.144 208.555 41.943 208.165 41.541C207.781 41.139 207.589 40.56 207.589 39.804V34.224H206.491C206.395 34.224 206.314 34.197 206.248 34.143C206.182 34.083 206.149 33.993 206.149 33.873V33.234L207.643 33.045L208.012 30.228C208.03 30.138 208.069 30.066 208.129 30.012C208.195 29.952 208.279 29.922 208.381 29.922H209.191V33.063H211.828V34.224H209.191V39.696C209.191 40.08 209.284 40.365 209.47 40.551C209.656 40.737 209.896 40.83 210.19 40.83C210.358 40.83 210.502 40.809 210.622 40.767C210.748 40.719 210.856 40.668 210.946 40.614C211.036 40.56 211.111 40.512 211.171 40.47C211.237 40.422 211.294 40.398 211.342 40.398C211.426 40.398 211.501 40.449 211.567 40.551L212.035 41.316C211.759 41.574 211.426 41.778 211.036 41.928C210.646 42.072 210.244 42.144 209.83 42.144ZM221.139 32.883V42H220.185C219.957 42 219.813 41.889 219.753 41.667L219.627 40.686C219.231 41.124 218.787 41.478 218.295 41.748C217.803 42.012 217.239 42.144 216.603 42.144C216.105 42.144 215.664 42.063 215.28 41.901C214.902 41.733 214.584 41.499 214.326 41.199C214.068 40.899 213.873 40.536 213.741 40.11C213.615 39.684 213.552 39.213 213.552 38.697V32.883H215.154V38.697C215.154 39.387 215.31 39.921 215.622 40.299C215.94 40.677 216.423 40.866 217.071 40.866C217.545 40.866 217.986 40.755 218.394 40.533C218.808 40.305 219.189 39.993 219.537 39.597V32.883H221.139ZM229.941 36.447C229.941 36.075 229.887 35.736 229.779 35.43C229.677 35.118 229.524 34.851 229.32 34.629C229.122 34.401 228.879 34.227 228.591 34.107C228.303 33.981 227.976 33.918 227.61 33.918C226.842 33.918 226.233 34.143 225.783 34.593C225.339 35.037 225.063 35.655 224.955 36.447H229.941ZM231.237 40.722C231.039 40.962 230.802 41.172 230.526 41.352C230.25 41.526 229.953 41.67 229.635 41.784C229.323 41.898 228.999 41.982 228.663 42.036C228.327 42.096 227.994 42.126 227.664 42.126C227.034 42.126 226.452 42.021 225.918 41.811C225.39 41.595 224.931 41.283 224.541 40.875C224.157 40.461 223.857 39.951 223.641 39.345C223.425 38.739 223.317 38.043 223.317 37.257C223.317 36.621 223.413 36.027 223.605 35.475C223.803 34.923 224.085 34.446 224.451 34.044C224.817 33.636 225.264 33.318 225.792 33.09C226.32 32.856 226.914 32.739 227.574 32.739C228.12 32.739 228.624 32.832 229.086 33.018C229.554 33.198 229.956 33.462 230.292 33.81C230.634 34.152 230.901 34.578 231.093 35.088C231.285 35.592 231.381 36.168 231.381 36.816C231.381 37.068 231.354 37.236 231.3 37.32C231.246 37.404 231.144 37.446 230.994 37.446H224.901C224.919 38.022 224.997 38.523 225.135 38.949C225.279 39.375 225.477 39.732 225.729 40.02C225.981 40.302 226.281 40.515 226.629 40.659C226.977 40.797 227.367 40.866 227.799 40.866C228.201 40.866 228.546 40.821 228.834 40.731C229.128 40.635 229.38 40.533 229.59 40.425C229.8 40.317 229.974 40.218 230.112 40.128C230.256 40.032 230.379 39.984 230.481 39.984C230.613 39.984 230.715 40.035 230.787 40.137L231.237 40.722ZM230.229 28.959L228.132 31.281C228.048 31.371 227.964 31.437 227.88 31.479C227.802 31.515 227.7 31.533 227.574 31.533H226.62L227.952 29.355C228.036 29.217 228.126 29.118 228.222 29.058C228.324 28.992 228.471 28.959 228.663 28.959H230.229ZM243.216 37.896C242.478 37.92 241.848 37.98 241.326 38.076C240.81 38.166 240.387 38.286 240.057 38.436C239.733 38.586 239.496 38.763 239.346 38.967C239.202 39.171 239.13 39.399 239.13 39.651C239.13 39.891 239.169 40.098 239.247 40.272C239.325 40.446 239.43 40.59 239.562 40.704C239.7 40.812 239.859 40.893 240.039 40.947C240.225 40.995 240.423 41.019 240.633 41.019C240.915 41.019 241.173 40.992 241.407 40.938C241.641 40.878 241.86 40.794 242.064 40.686C242.274 40.578 242.472 40.449 242.658 40.299C242.85 40.149 243.036 39.978 243.216 39.786V37.896ZM238.041 34.17C238.545 33.684 239.088 33.321 239.67 33.081C240.252 32.841 240.897 32.721 241.605 32.721C242.115 32.721 242.568 32.805 242.964 32.973C243.36 33.141 243.693 33.375 243.963 33.675C244.233 33.975 244.437 34.338 244.575 34.764C244.713 35.19 244.782 35.658 244.782 36.168V42H244.071C243.915 42 243.795 41.976 243.711 41.928C243.627 41.874 243.561 41.772 243.513 41.622L243.333 40.758C243.093 40.98 242.859 41.178 242.631 41.352C242.403 41.52 242.163 41.664 241.911 41.784C241.659 41.898 241.389 41.985 241.101 42.045C240.819 42.111 240.504 42.144 240.156 42.144C239.802 42.144 239.469 42.096 239.157 42C238.845 41.898 238.572 41.748 238.338 41.55C238.11 41.352 237.927 41.103 237.789 40.803C237.657 40.497 237.591 40.137 237.591 39.723C237.591 39.363 237.69 39.018 237.888 38.688C238.086 38.352 238.407 38.055 238.851 37.797C239.295 37.539 239.874 37.329 240.588 37.167C241.302 36.999 242.178 36.903 243.216 36.879V36.168C243.216 35.46 243.063 34.926 242.757 34.566C242.451 34.2 242.004 34.017 241.416 34.017C241.02 34.017 240.687 34.068 240.417 34.17C240.153 34.266 239.922 34.377 239.724 34.503C239.532 34.623 239.364 34.734 239.22 34.836C239.082 34.932 238.944 34.98 238.806 34.98C238.698 34.98 238.605 34.953 238.527 34.899C238.449 34.839 238.383 34.767 238.329 34.683L238.041 34.17ZM240.507 28.959C240.705 28.959 240.852 28.992 240.948 29.058C241.044 29.118 241.134 29.217 241.218 29.355L242.559 31.533H241.641C241.515 31.533 241.413 31.515 241.335 31.479C241.257 31.437 241.176 31.371 241.092 31.281L238.986 28.959H240.507ZM254.271 30.525V35.034H259.572V36.456H254.271V42H252.525V29.103H260.472V30.525H254.271ZM267.796 36.447C267.796 36.075 267.742 35.736 267.634 35.43C267.532 35.118 267.379 34.851 267.175 34.629C266.977 34.401 266.734 34.227 266.446 34.107C266.158 33.981 265.831 33.918 265.465 33.918C264.697 33.918 264.088 34.143 263.638 34.593C263.194 35.037 262.918 35.655 262.81 36.447H267.796ZM269.092 40.722C268.894 40.962 268.657 41.172 268.381 41.352C268.105 41.526 267.808 41.67 267.49 41.784C267.178 41.898 266.854 41.982 266.518 42.036C266.182 42.096 265.849 42.126 265.519 42.126C264.889 42.126 264.307 42.021 263.773 41.811C263.245 41.595 262.786 41.283 262.396 40.875C262.012 40.461 261.712 39.951 261.496 39.345C261.28 38.739 261.172 38.043 261.172 37.257C261.172 36.621 261.268 36.027 261.46 35.475C261.658 34.923 261.94 34.446 262.306 34.044C262.672 33.636 263.119 33.318 263.647 33.09C264.175 32.856 264.769 32.739 265.429 32.739C265.975 32.739 266.479 32.832 266.941 33.018C267.409 33.198 267.811 33.462 268.147 33.81C268.489 34.152 268.756 34.578 268.948 35.088C269.14 35.592 269.236 36.168 269.236 36.816C269.236 37.068 269.209 37.236 269.155 37.32C269.101 37.404 268.999 37.446 268.849 37.446H262.756C262.774 38.022 262.852 38.523 262.99 38.949C263.134 39.375 263.332 39.732 263.584 40.02C263.836 40.302 264.136 40.515 264.484 40.659C264.832 40.797 265.222 40.866 265.654 40.866C266.056 40.866 266.401 40.821 266.689 40.731C266.983 40.635 267.235 40.533 267.445 40.425C267.655 40.317 267.829 40.218 267.967 40.128C268.111 40.032 268.234 39.984 268.336 39.984C268.468 39.984 268.57 40.035 268.642 40.137L269.092 40.722ZM264.565 28.959C264.763 28.959 264.91 28.992 265.006 29.058C265.102 29.118 265.192 29.217 265.276 29.355L266.617 31.533H265.699C265.573 31.533 265.471 31.515 265.393 31.479C265.315 31.437 265.234 31.371 265.15 31.281L263.044 28.959H264.565ZM276.674 34.386C276.602 34.518 276.491 34.584 276.341 34.584C276.251 34.584 276.149 34.551 276.035 34.485C275.921 34.419 275.78 34.347 275.612 34.269C275.45 34.185 275.255 34.11 275.027 34.044C274.799 33.972 274.529 33.936 274.217 33.936C273.947 33.936 273.704 33.972 273.488 34.044C273.272 34.11 273.086 34.203 272.93 34.323C272.78 34.443 272.663 34.584 272.579 34.746C272.501 34.902 272.462 35.073 272.462 35.259C272.462 35.493 272.528 35.688 272.66 35.844C272.798 36 272.978 36.135 273.2 36.249C273.422 36.363 273.674 36.465 273.956 36.555C274.238 36.639 274.526 36.732 274.82 36.834C275.12 36.93 275.411 37.038 275.693 37.158C275.975 37.278 276.227 37.428 276.449 37.608C276.671 37.788 276.848 38.01 276.98 38.274C277.118 38.532 277.187 38.844 277.187 39.21C277.187 39.63 277.112 40.02 276.962 40.38C276.812 40.734 276.59 41.043 276.296 41.307C276.002 41.565 275.642 41.769 275.216 41.919C274.79 42.069 274.298 42.144 273.74 42.144C273.104 42.144 272.528 42.042 272.012 41.838C271.496 41.628 271.058 41.361 270.698 41.037L271.076 40.425C271.124 40.347 271.181 40.287 271.247 40.245C271.313 40.203 271.397 40.182 271.499 40.182C271.607 40.182 271.721 40.224 271.841 40.308C271.961 40.392 272.105 40.485 272.273 40.587C272.447 40.689 272.657 40.782 272.903 40.866C273.149 40.95 273.455 40.992 273.821 40.992C274.133 40.992 274.406 40.953 274.64 40.875C274.874 40.791 275.069 40.68 275.225 40.542C275.381 40.404 275.495 40.245 275.567 40.065C275.645 39.885 275.684 39.693 275.684 39.489C275.684 39.237 275.615 39.03 275.477 38.868C275.345 38.7 275.168 38.559 274.946 38.445C274.724 38.325 274.469 38.223 274.181 38.139C273.899 38.049 273.608 37.956 273.308 37.86C273.014 37.764 272.723 37.656 272.435 37.536C272.153 37.41 271.901 37.254 271.679 37.068C271.457 36.882 271.277 36.654 271.139 36.384C271.007 36.108 270.941 35.775 270.941 35.385C270.941 35.037 271.013 34.704 271.157 34.386C271.301 34.062 271.511 33.78 271.787 33.54C272.063 33.294 272.402 33.099 272.804 32.955C273.206 32.811 273.665 32.739 274.181 32.739C274.781 32.739 275.318 32.835 275.792 33.027C276.272 33.213 276.686 33.471 277.034 33.801L276.674 34.386ZM290.016 35.043C289.728 34.659 289.407 34.386 289.053 34.224C288.699 34.056 288.306 33.972 287.874 33.972C287.028 33.972 286.377 34.275 285.921 34.881C285.465 35.487 285.237 36.351 285.237 37.473C285.237 38.067 285.288 38.577 285.39 39.003C285.492 39.423 285.642 39.771 285.84 40.047C286.038 40.317 286.281 40.515 286.569 40.641C286.857 40.767 287.184 40.83 287.55 40.83C288.078 40.83 288.537 40.71 288.927 40.47C289.323 40.23 289.686 39.891 290.016 39.453V35.043ZM291.618 32.883V45.087H290.016V40.641C289.638 41.085 289.203 41.445 288.711 41.721C288.219 41.991 287.658 42.126 287.028 42.126C286.506 42.126 286.032 42.027 285.606 41.829C285.18 41.625 284.817 41.328 284.517 40.938C284.217 40.548 283.986 40.062 283.824 39.48C283.662 38.898 283.581 38.229 283.581 37.473C283.581 36.801 283.671 36.177 283.851 35.601C284.031 35.019 284.289 34.515 284.625 34.089C284.961 33.663 285.372 33.33 285.858 33.09C286.35 32.844 286.902 32.721 287.514 32.721C288.108 32.721 288.612 32.826 289.026 33.036C289.44 33.246 289.806 33.54 290.124 33.918L290.232 33.216C290.292 32.994 290.436 32.883 290.664 32.883H291.618ZM301.806 32.883V42H300.852C300.624 42 300.48 41.889 300.42 41.667L300.294 40.686C299.898 41.124 299.454 41.478 298.962 41.748C298.47 42.012 297.906 42.144 297.27 42.144C296.772 42.144 296.331 42.063 295.947 41.901C295.569 41.733 295.251 41.499 294.993 41.199C294.735 40.899 294.54 40.536 294.408 40.11C294.282 39.684 294.219 39.213 294.219 38.697V32.883H295.821V38.697C295.821 39.387 295.977 39.921 296.289 40.299C296.607 40.677 297.09 40.866 297.738 40.866C298.212 40.866 298.653 40.755 299.061 40.533C299.475 40.305 299.856 39.993 300.204 39.597V32.883H301.806ZM306.198 32.883V42H304.596V32.883H306.198ZM306.54 30.021C306.54 30.177 306.507 30.324 306.441 30.462C306.381 30.594 306.297 30.714 306.189 30.822C306.087 30.924 305.964 31.005 305.82 31.065C305.682 31.125 305.535 31.155 305.379 31.155C305.223 31.155 305.076 31.125 304.938 31.065C304.806 31.005 304.689 30.924 304.587 30.822C304.485 30.714 304.404 30.594 304.344 30.462C304.284 30.324 304.254 30.177 304.254 30.021C304.254 29.865 304.284 29.718 304.344 29.58C304.404 29.436 304.485 29.313 304.587 29.211C304.689 29.103 304.806 29.019 304.938 28.959C305.076 28.899 305.223 28.869 305.379 28.869C305.535 28.869 305.682 28.899 305.82 28.959C305.964 29.019 306.087 29.103 306.189 29.211C306.297 29.313 306.381 29.436 306.441 29.58C306.507 29.718 306.54 29.865 306.54 30.021ZM319.065 34.386C318.993 34.518 318.882 34.584 318.732 34.584C318.642 34.584 318.54 34.551 318.426 34.485C318.312 34.419 318.171 34.347 318.003 34.269C317.841 34.185 317.646 34.11 317.418 34.044C317.19 33.972 316.92 33.936 316.608 33.936C316.338 33.936 316.095 33.972 315.879 34.044C315.663 34.11 315.477 34.203 315.321 34.323C315.171 34.443 315.054 34.584 314.97 34.746C314.892 34.902 314.853 35.073 314.853 35.259C314.853 35.493 314.919 35.688 315.051 35.844C315.189 36 315.369 36.135 315.591 36.249C315.813 36.363 316.065 36.465 316.347 36.555C316.629 36.639 316.917 36.732 317.211 36.834C317.511 36.93 317.802 37.038 318.084 37.158C318.366 37.278 318.618 37.428 318.84 37.608C319.062 37.788 319.239 38.01 319.371 38.274C319.509 38.532 319.578 38.844 319.578 39.21C319.578 39.63 319.503 40.02 319.353 40.38C319.203 40.734 318.981 41.043 318.687 41.307C318.393 41.565 318.033 41.769 317.607 41.919C317.181 42.069 316.689 42.144 316.131 42.144C315.495 42.144 314.919 42.042 314.403 41.838C313.887 41.628 313.449 41.361 313.089 41.037L313.467 40.425C313.515 40.347 313.572 40.287 313.638 40.245C313.704 40.203 313.788 40.182 313.89 40.182C313.998 40.182 314.112 40.224 314.232 40.308C314.352 40.392 314.496 40.485 314.664 40.587C314.838 40.689 315.048 40.782 315.294 40.866C315.54 40.95 315.846 40.992 316.212 40.992C316.524 40.992 316.797 40.953 317.031 40.875C317.265 40.791 317.46 40.68 317.616 40.542C317.772 40.404 317.886 40.245 317.958 40.065C318.036 39.885 318.075 39.693 318.075 39.489C318.075 39.237 318.006 39.03 317.868 38.868C317.736 38.7 317.559 38.559 317.337 38.445C317.115 38.325 316.86 38.223 316.572 38.139C316.29 38.049 315.999 37.956 315.699 37.86C315.405 37.764 315.114 37.656 314.826 37.536C314.544 37.41 314.292 37.254 314.07 37.068C313.848 36.882 313.668 36.654 313.53 36.384C313.398 36.108 313.332 35.775 313.332 35.385C313.332 35.037 313.404 34.704 313.548 34.386C313.692 34.062 313.902 33.78 314.178 33.54C314.454 33.294 314.793 33.099 315.195 32.955C315.597 32.811 316.056 32.739 316.572 32.739C317.172 32.739 317.709 32.835 318.183 33.027C318.663 33.213 319.077 33.471 319.425 33.801L319.065 34.386ZM322.972 29.103V31.713L322.828 33.108C322.798 33.3 322.741 33.45 322.657 33.558C322.579 33.66 322.45 33.711 322.27 33.711C322.108 33.711 321.982 33.66 321.892 33.558C321.808 33.45 321.751 33.3 321.721 33.108L321.577 31.713V29.103H322.972ZM331.269 36.447C331.269 36.075 331.215 35.736 331.107 35.43C331.005 35.118 330.852 34.851 330.648 34.629C330.45 34.401 330.207 34.227 329.919 34.107C329.631 33.981 329.304 33.918 328.938 33.918C328.17 33.918 327.561 34.143 327.111 34.593C326.667 35.037 326.391 35.655 326.283 36.447H331.269ZM332.565 40.722C332.367 40.962 332.13 41.172 331.854 41.352C331.578 41.526 331.281 41.67 330.963 41.784C330.651 41.898 330.327 41.982 329.991 42.036C329.655 42.096 329.322 42.126 328.992 42.126C328.362 42.126 327.78 42.021 327.246 41.811C326.718 41.595 326.259 41.283 325.869 40.875C325.485 40.461 325.185 39.951 324.969 39.345C324.753 38.739 324.645 38.043 324.645 37.257C324.645 36.621 324.741 36.027 324.933 35.475C325.131 34.923 325.413 34.446 325.779 34.044C326.145 33.636 326.592 33.318 327.12 33.09C327.648 32.856 328.242 32.739 328.902 32.739C329.448 32.739 329.952 32.832 330.414 33.018C330.882 33.198 331.284 33.462 331.62 33.81C331.962 34.152 332.229 34.578 332.421 35.088C332.613 35.592 332.709 36.168 332.709 36.816C332.709 37.068 332.682 37.236 332.628 37.32C332.574 37.404 332.472 37.446 332.322 37.446H326.229C326.247 38.022 326.325 38.523 326.463 38.949C326.607 39.375 326.805 39.732 327.057 40.02C327.309 40.302 327.609 40.515 327.957 40.659C328.305 40.797 328.695 40.866 329.127 40.866C329.529 40.866 329.874 40.821 330.162 40.731C330.456 40.635 330.708 40.533 330.918 40.425C331.128 40.317 331.302 40.218 331.44 40.128C331.584 40.032 331.707 39.984 331.809 39.984C331.941 39.984 332.043 40.035 332.115 40.137L332.565 40.722ZM331.557 28.959L329.46 31.281C329.376 31.371 329.292 31.437 329.208 31.479C329.13 31.515 329.028 31.533 328.902 31.533H327.948L329.28 29.355C329.364 29.217 329.454 29.118 329.55 29.058C329.652 28.992 329.799 28.959 329.991 28.959H331.557ZM337.566 42.144C336.846 42.144 336.291 41.943 335.901 41.541C335.517 41.139 335.325 40.56 335.325 39.804V34.224H334.227C334.131 34.224 334.05 34.197 333.984 34.143C333.918 34.083 333.885 33.993 333.885 33.873V33.234L335.379 33.045L335.748 30.228C335.766 30.138 335.805 30.066 335.865 30.012C335.931 29.952 336.015 29.922 336.117 29.922H336.927V33.063H339.564V34.224H336.927V39.696C336.927 40.08 337.02 40.365 337.206 40.551C337.392 40.737 337.632 40.83 337.926 40.83C338.094 40.83 338.238 40.809 338.358 40.767C338.484 40.719 338.592 40.668 338.682 40.614C338.772 40.56 338.847 40.512 338.907 40.47C338.973 40.422 339.03 40.398 339.078 40.398C339.162 40.398 339.237 40.449 339.303 40.551L339.771 41.316C339.495 41.574 339.162 41.778 338.772 41.928C338.382 42.072 337.98 42.144 337.566 42.144ZM347.427 36.447C347.427 36.075 347.373 35.736 347.265 35.43C347.163 35.118 347.01 34.851 346.806 34.629C346.608 34.401 346.365 34.227 346.077 34.107C345.789 33.981 345.462 33.918 345.096 33.918C344.328 33.918 343.719 34.143 343.269 34.593C342.825 35.037 342.549 35.655 342.441 36.447H347.427ZM348.723 40.722C348.525 40.962 348.288 41.172 348.012 41.352C347.736 41.526 347.439 41.67 347.121 41.784C346.809 41.898 346.485 41.982 346.149 42.036C345.813 42.096 345.48 42.126 345.15 42.126C344.52 42.126 343.938 42.021 343.404 41.811C342.876 41.595 342.417 41.283 342.027 40.875C341.643 40.461 341.343 39.951 341.127 39.345C340.911 38.739 340.803 38.043 340.803 37.257C340.803 36.621 340.899 36.027 341.091 35.475C341.289 34.923 341.571 34.446 341.937 34.044C342.303 33.636 342.75 33.318 343.278 33.09C343.806 32.856 344.4 32.739 345.06 32.739C345.606 32.739 346.11 32.832 346.572 33.018C347.04 33.198 347.442 33.462 347.778 33.81C348.12 34.152 348.387 34.578 348.579 35.088C348.771 35.592 348.867 36.168 348.867 36.816C348.867 37.068 348.84 37.236 348.786 37.32C348.732 37.404 348.63 37.446 348.48 37.446H342.387C342.405 38.022 342.483 38.523 342.621 38.949C342.765 39.375 342.963 39.732 343.215 40.02C343.467 40.302 343.767 40.515 344.115 40.659C344.463 40.797 344.853 40.866 345.285 40.866C345.687 40.866 346.032 40.821 346.32 40.731C346.614 40.635 346.866 40.533 347.076 40.425C347.286 40.317 347.46 40.218 347.598 40.128C347.742 40.032 347.865 39.984 347.967 39.984C348.099 39.984 348.201 40.035 348.273 40.137L348.723 40.722ZM352.507 34.206C352.705 33.984 352.915 33.783 353.137 33.603C353.359 33.423 353.593 33.27 353.839 33.144C354.091 33.012 354.355 32.913 354.631 32.847C354.913 32.775 355.216 32.739 355.54 32.739C356.038 32.739 356.476 32.823 356.854 32.991C357.238 33.153 357.556 33.387 357.808 33.693C358.066 33.993 358.261 34.356 358.393 34.782C358.525 35.208 358.591 35.679 358.591 36.195V42H356.98V36.195C356.98 35.505 356.821 34.971 356.503 34.593C356.191 34.209 355.714 34.017 355.072 34.017C354.598 34.017 354.154 34.131 353.74 34.359C353.332 34.587 352.954 34.896 352.606 35.286V42H350.995V32.883H351.958C352.186 32.883 352.327 32.994 352.381 33.216L352.507 34.206ZM367.132 35.052C366.832 34.65 366.508 34.371 366.16 34.215C365.812 34.053 365.422 33.972 364.99 33.972C364.144 33.972 363.493 34.275 363.037 34.881C362.581 35.487 362.353 36.351 362.353 37.473C362.353 38.067 362.404 38.577 362.506 39.003C362.608 39.423 362.758 39.771 362.956 40.047C363.154 40.317 363.397 40.515 363.685 40.641C363.973 40.767 364.3 40.83 364.666 40.83C365.194 40.83 365.653 40.71 366.043 40.47C366.439 40.23 366.802 39.891 367.132 39.453V35.052ZM368.734 28.743V42H367.78C367.552 42 367.408 41.889 367.348 41.667L367.204 40.56C366.814 41.028 366.37 41.406 365.872 41.694C365.374 41.982 364.798 42.126 364.144 42.126C363.622 42.126 363.148 42.027 362.722 41.829C362.296 41.625 361.933 41.328 361.633 40.938C361.333 40.548 361.102 40.062 360.94 39.48C360.778 38.898 360.697 38.229 360.697 37.473C360.697 36.801 360.787 36.177 360.967 35.601C361.147 35.019 361.405 34.515 361.741 34.089C362.077 33.663 362.488 33.33 362.974 33.09C363.466 32.844 364.018 32.721 364.63 32.721C365.188 32.721 365.665 32.817 366.061 33.009C366.463 33.195 366.82 33.456 367.132 33.792V28.743H368.734ZM381.5 34.386C381.428 34.518 381.317 34.584 381.167 34.584C381.077 34.584 380.975 34.551 380.861 34.485C380.747 34.419 380.606 34.347 380.438 34.269C380.276 34.185 380.081 34.11 379.853 34.044C379.625 33.972 379.355 33.936 379.043 33.936C378.773 33.936 378.53 33.972 378.314 34.044C378.098 34.11 377.912 34.203 377.756 34.323C377.606 34.443 377.489 34.584 377.405 34.746C377.327 34.902 377.288 35.073 377.288 35.259C377.288 35.493 377.354 35.688 377.486 35.844C377.624 36 377.804 36.135 378.026 36.249C378.248 36.363 378.5 36.465 378.782 36.555C379.064 36.639 379.352 36.732 379.646 36.834C379.946 36.93 380.237 37.038 380.519 37.158C380.801 37.278 381.053 37.428 381.275 37.608C381.497 37.788 381.674 38.01 381.806 38.274C381.944 38.532 382.013 38.844 382.013 39.21C382.013 39.63 381.938 40.02 381.788 40.38C381.638 40.734 381.416 41.043 381.122 41.307C380.828 41.565 380.468 41.769 380.042 41.919C379.616 42.069 379.124 42.144 378.566 42.144C377.93 42.144 377.354 42.042 376.838 41.838C376.322 41.628 375.884 41.361 375.524 41.037L375.902 40.425C375.95 40.347 376.007 40.287 376.073 40.245C376.139 40.203 376.223 40.182 376.325 40.182C376.433 40.182 376.547 40.224 376.667 40.308C376.787 40.392 376.931 40.485 377.099 40.587C377.273 40.689 377.483 40.782 377.729 40.866C377.975 40.95 378.281 40.992 378.647 40.992C378.959 40.992 379.232 40.953 379.466 40.875C379.7 40.791 379.895 40.68 380.051 40.542C380.207 40.404 380.321 40.245 380.393 40.065C380.471 39.885 380.51 39.693 380.51 39.489C380.51 39.237 380.441 39.03 380.303 38.868C380.171 38.7 379.994 38.559 379.772 38.445C379.55 38.325 379.295 38.223 379.007 38.139C378.725 38.049 378.434 37.956 378.134 37.86C377.84 37.764 377.549 37.656 377.261 37.536C376.979 37.41 376.727 37.254 376.505 37.068C376.283 36.882 376.103 36.654 375.965 36.384C375.833 36.108 375.767 35.775 375.767 35.385C375.767 35.037 375.839 34.704 375.983 34.386C376.127 34.062 376.337 33.78 376.613 33.54C376.889 33.294 377.228 33.099 377.63 32.955C378.032 32.811 378.491 32.739 379.007 32.739C379.607 32.739 380.144 32.835 380.618 33.027C381.098 33.213 381.512 33.471 381.86 33.801L381.5 34.386ZM391.634 32.883V42H390.68C390.452 42 390.308 41.889 390.248 41.667L390.122 40.686C389.726 41.124 389.282 41.478 388.79 41.748C388.298 42.012 387.734 42.144 387.098 42.144C386.6 42.144 386.159 42.063 385.775 41.901C385.397 41.733 385.079 41.499 384.821 41.199C384.563 40.899 384.368 40.536 384.236 40.11C384.11 39.684 384.047 39.213 384.047 38.697V32.883H385.649V38.697C385.649 39.387 385.805 39.921 386.117 40.299C386.435 40.677 386.918 40.866 387.566 40.866C388.04 40.866 388.481 40.755 388.889 40.533C389.303 40.305 389.684 39.993 390.032 39.597V32.883H391.634ZM395.855 34.71C396.143 34.086 396.497 33.6 396.917 33.252C397.337 32.898 397.85 32.721 398.456 32.721C398.648 32.721 398.831 32.742 399.005 32.784C399.185 32.826 399.344 32.892 399.482 32.982L399.365 34.179C399.329 34.329 399.239 34.404 399.095 34.404C399.011 34.404 398.888 34.386 398.726 34.35C398.564 34.314 398.381 34.296 398.177 34.296C397.889 34.296 397.631 34.338 397.403 34.422C397.181 34.506 396.98 34.632 396.8 34.8C396.626 34.962 396.467 35.166 396.323 35.412C396.185 35.652 396.059 35.928 395.945 36.24V42H394.334V32.883H395.252C395.426 32.883 395.546 32.916 395.612 32.982C395.678 33.048 395.723 33.162 395.747 33.324L395.855 34.71ZM20.068 60.144C19.348 60.144 18.793 59.943 18.403 59.541C18.019 59.139 17.827 58.56 17.827 57.804V52.224H16.729C16.633 52.224 16.552 52.197 16.486 52.143C16.42 52.083 16.387 51.993 16.387 51.873V51.234L17.881 51.045L18.25 48.228C18.268 48.138 18.307 48.066 18.367 48.012C18.433 47.952 18.517 47.922 18.619 47.922H19.429V51.063H22.066V52.224H19.429V57.696C19.429 58.08 19.522 58.365 19.708 58.551C19.894 58.737 20.134 58.83 20.428 58.83C20.596 58.83 20.74 58.809 20.86 58.767C20.986 58.719 21.094 58.668 21.184 58.614C21.274 58.56 21.349 58.512 21.409 58.47C21.475 58.422 21.532 58.398 21.58 58.398C21.664 58.398 21.739 58.449 21.805 58.551L22.273 59.316C21.997 59.574 21.664 59.778 21.274 59.928C20.884 60.072 20.482 60.144 20.068 60.144ZM25.4012 52.71C25.6892 52.086 26.0432 51.6 26.4632 51.252C26.8832 50.898 27.3962 50.721 28.0022 50.721C28.1942 50.721 28.3772 50.742 28.5512 50.784C28.7312 50.826 28.8902 50.892 29.0282 50.982L28.9112 52.179C28.8752 52.329 28.7852 52.404 28.6412 52.404C28.5572 52.404 28.4342 52.386 28.2722 52.35C28.1102 52.314 27.9272 52.296 27.7232 52.296C27.4352 52.296 27.1772 52.338 26.9492 52.422C26.7272 52.506 26.5262 52.632 26.3462 52.8C26.1722 52.962 26.0132 53.166 25.8692 53.412C25.7312 53.652 25.6052 53.928 25.4912 54.24V60H23.8802V50.883H24.7982C24.9722 50.883 25.0922 50.916 25.1582 50.982C25.2242 51.048 25.2692 51.162 25.2932 51.324L25.4012 52.71ZM34.0707 50.739C34.7367 50.739 35.3367 50.85 35.8707 51.072C36.4047 51.294 36.8607 51.609 37.2387 52.017C37.6167 52.425 37.9047 52.92 38.1027 53.502C38.3067 54.078 38.4087 54.723 38.4087 55.437C38.4087 56.157 38.3067 56.805 38.1027 57.381C37.9047 57.957 37.6167 58.449 37.2387 58.857C36.8607 59.265 36.4047 59.58 35.8707 59.802C35.3367 60.018 34.7367 60.126 34.0707 60.126C33.3987 60.126 32.7927 60.018 32.2527 59.802C31.7187 59.58 31.2627 59.265 30.8847 58.857C30.5067 58.449 30.2157 57.957 30.0117 57.381C29.8137 56.805 29.7147 56.157 29.7147 55.437C29.7147 54.723 29.8137 54.078 30.0117 53.502C30.2157 52.92 30.5067 52.425 30.8847 52.017C31.2627 51.609 31.7187 51.294 32.2527 51.072C32.7927 50.85 33.3987 50.739 34.0707 50.739ZM34.0707 58.875C34.9707 58.875 35.6427 58.575 36.0867 57.975C36.5307 57.369 36.7527 56.526 36.7527 55.446C36.7527 54.36 36.5307 53.514 36.0867 52.908C35.6427 52.302 34.9707 51.999 34.0707 51.999C33.6147 51.999 33.2157 52.077 32.8737 52.233C32.5377 52.389 32.2557 52.614 32.0277 52.908C31.8057 53.202 31.6377 53.565 31.5237 53.997C31.4157 54.423 31.3617 54.906 31.3617 55.446C31.3617 56.526 31.5837 57.369 32.0277 57.975C32.4777 58.575 33.1587 58.875 34.0707 58.875ZM42.2926 50.883V60H40.6906V50.883H42.2926ZM42.6346 48.021C42.6346 48.177 42.6016 48.324 42.5356 48.462C42.4756 48.594 42.3916 48.714 42.2836 48.822C42.1816 48.924 42.0586 49.005 41.9146 49.065C41.7766 49.125 41.6296 49.155 41.4736 49.155C41.3176 49.155 41.1706 49.125 41.0326 49.065C40.9006 49.005 40.7836 48.924 40.6816 48.822C40.5796 48.714 40.4986 48.594 40.4386 48.462C40.3786 48.324 40.3486 48.177 40.3486 48.021C40.3486 47.865 40.3786 47.718 40.4386 47.58C40.4986 47.436 40.5796 47.313 40.6816 47.211C40.7836 47.103 40.9006 47.019 41.0326 46.959C41.1706 46.899 41.3176 46.869 41.4736 46.869C41.6296 46.869 41.7766 46.899 41.9146 46.959C42.0586 47.019 42.1816 47.103 42.2836 47.211C42.3916 47.313 42.4756 47.436 42.5356 47.58C42.6016 47.718 42.6346 47.865 42.6346 48.021ZM50.3948 52.386C50.3228 52.518 50.2118 52.584 50.0618 52.584C49.9718 52.584 49.8698 52.551 49.7558 52.485C49.6418 52.419 49.5008 52.347 49.3328 52.269C49.1708 52.185 48.9758 52.11 48.7478 52.044C48.5198 51.972 48.2498 51.936 47.9378 51.936C47.6678 51.936 47.4248 51.972 47.2088 52.044C46.9928 52.11 46.8068 52.203 46.6508 52.323C46.5008 52.443 46.3838 52.584 46.2998 52.746C46.2218 52.902 46.1828 53.073 46.1828 53.259C46.1828 53.493 46.2488 53.688 46.3808 53.844C46.5188 54 46.6988 54.135 46.9208 54.249C47.1428 54.363 47.3948 54.465 47.6768 54.555C47.9588 54.639 48.2468 54.732 48.5408 54.834C48.8408 54.93 49.1318 55.038 49.4138 55.158C49.6958 55.278 49.9478 55.428 50.1698 55.608C50.3918 55.788 50.5688 56.01 50.7008 56.274C50.8388 56.532 50.9078 56.844 50.9078 57.21C50.9078 57.63 50.8328 58.02 50.6828 58.38C50.5328 58.734 50.3108 59.043 50.0168 59.307C49.7228 59.565 49.3628 59.769 48.9368 59.919C48.5108 60.069 48.0188 60.144 47.4608 60.144C46.8248 60.144 46.2488 60.042 45.7328 59.838C45.2168 59.628 44.7788 59.361 44.4188 59.037L44.7968 58.425C44.8448 58.347 44.9018 58.287 44.9678 58.245C45.0338 58.203 45.1178 58.182 45.2198 58.182C45.3278 58.182 45.4418 58.224 45.5618 58.308C45.6818 58.392 45.8258 58.485 45.9938 58.587C46.1678 58.689 46.3778 58.782 46.6238 58.866C46.8698 58.95 47.1758 58.992 47.5418 58.992C47.8538 58.992 48.1268 58.953 48.3608 58.875C48.5948 58.791 48.7898 58.68 48.9458 58.542C49.1018 58.404 49.2158 58.245 49.2878 58.065C49.3658 57.885 49.4048 57.693 49.4048 57.489C49.4048 57.237 49.3358 57.03 49.1978 56.868C49.0658 56.7 48.8888 56.559 48.6668 56.445C48.4448 56.325 48.1898 56.223 47.9018 56.139C47.6198 56.049 47.3288 55.956 47.0288 55.86C46.7348 55.764 46.4438 55.656 46.1558 55.536C45.8738 55.41 45.6218 55.254 45.3998 55.068C45.1778 54.882 44.9978 54.654 44.8598 54.384C44.7278 54.108 44.6618 53.775 44.6618 53.385C44.6618 53.037 44.7338 52.704 44.8778 52.386C45.0218 52.062 45.2318 51.78 45.5078 51.54C45.7838 51.294 46.1228 51.099 46.5248 50.955C46.9268 50.811 47.3858 50.739 47.9018 50.739C48.5018 50.739 49.0388 50.835 49.5128 51.027C49.9928 51.213 50.4068 51.471 50.7548 51.801L50.3948 52.386ZM59.3094 52.206C59.5074 51.984 59.7174 51.783 59.9394 51.603C60.1614 51.423 60.3954 51.27 60.6414 51.144C60.8934 51.012 61.1574 50.913 61.4334 50.847C61.7154 50.775 62.0184 50.739 62.3424 50.739C62.8404 50.739 63.2784 50.823 63.6564 50.991C64.0404 51.153 64.3584 51.387 64.6104 51.693C64.8684 51.993 65.0634 52.356 65.1954 52.782C65.3274 53.208 65.3934 53.679 65.3934 54.195V60H63.7824V54.195C63.7824 53.505 63.6234 52.971 63.3054 52.593C62.9934 52.209 62.5164 52.017 61.8744 52.017C61.4004 52.017 60.9564 52.131 60.5424 52.359C60.1344 52.587 59.7564 52.896 59.4084 53.286V60H57.7974V50.883H58.7604C58.9884 50.883 59.1294 50.994 59.1834 51.216L59.3094 52.206ZM69.6865 50.883V60H68.0845V50.883H69.6865ZM70.0285 48.021C70.0285 48.177 69.9955 48.324 69.9295 48.462C69.8695 48.594 69.7855 48.714 69.6775 48.822C69.5755 48.924 69.4525 49.005 69.3085 49.065C69.1705 49.125 69.0235 49.155 68.8675 49.155C68.7115 49.155 68.5645 49.125 68.4265 49.065C68.2945 49.005 68.1775 48.924 68.0755 48.822C67.9735 48.714 67.8925 48.594 67.8325 48.462C67.7725 48.324 67.7425 48.177 67.7425 48.021C67.7425 47.865 67.7725 47.718 67.8325 47.58C67.8925 47.436 67.9735 47.313 68.0755 47.211C68.1775 47.103 68.2945 47.019 68.4265 46.959C68.5645 46.899 68.7115 46.869 68.8675 46.869C69.0235 46.869 69.1705 46.899 69.3085 46.959C69.4525 47.019 69.5755 47.103 69.6775 47.211C69.7855 47.313 69.8695 47.436 69.9295 47.58C69.9955 47.718 70.0285 47.865 70.0285 48.021ZM80.2907 50.883L76.5737 60H75.1337L71.4167 50.883H72.7217C72.8537 50.883 72.9617 50.916 73.0457 50.982C73.1297 51.048 73.1867 51.126 73.2167 51.216L75.5297 57.084C75.6017 57.306 75.6647 57.522 75.7187 57.732C75.7727 57.942 75.8237 58.152 75.8717 58.362C75.9197 58.152 75.9707 57.942 76.0247 57.732C76.0787 57.522 76.1447 57.306 76.2227 57.084L78.5627 51.216C78.5987 51.12 78.6587 51.042 78.7427 50.982C78.8267 50.916 78.9257 50.883 79.0397 50.883H80.2907ZM87.7758 54.447C87.7758 54.075 87.7218 53.736 87.6138 53.43C87.5118 53.118 87.3588 52.851 87.1548 52.629C86.9568 52.401 86.7138 52.227 86.4258 52.107C86.1378 51.981 85.8108 51.918 85.4448 51.918C84.6768 51.918 84.0678 52.143 83.6178 52.593C83.1738 53.037 82.8978 53.655 82.7898 54.447H87.7758ZM89.0718 58.722C88.8738 58.962 88.6368 59.172 88.3608 59.352C88.0848 59.526 87.7878 59.67 87.4698 59.784C87.1578 59.898 86.8338 59.982 86.4978 60.036C86.1618 60.096 85.8288 60.126 85.4988 60.126C84.8688 60.126 84.2868 60.021 83.7528 59.811C83.2248 59.595 82.7658 59.283 82.3758 58.875C81.9918 58.461 81.6918 57.951 81.4758 57.345C81.2598 56.739 81.1518 56.043 81.1518 55.257C81.1518 54.621 81.2478 54.027 81.4398 53.475C81.6378 52.923 81.9198 52.446 82.2858 52.044C82.6518 51.636 83.0988 51.318 83.6268 51.09C84.1548 50.856 84.7488 50.739 85.4088 50.739C85.9548 50.739 86.4588 50.832 86.9208 51.018C87.3888 51.198 87.7908 51.462 88.1268 51.81C88.4688 52.152 88.7358 52.578 88.9278 53.088C89.1198 53.592 89.2158 54.168 89.2158 54.816C89.2158 55.068 89.1888 55.236 89.1348 55.32C89.0808 55.404 88.9788 55.446 88.8288 55.446H82.7358C82.7538 56.022 82.8318 56.523 82.9698 56.949C83.1138 57.375 83.3118 57.732 83.5638 58.02C83.8158 58.302 84.1158 58.515 84.4638 58.659C84.8118 58.797 85.2018 58.866 85.6338 58.866C86.0358 58.866 86.3808 58.821 86.6688 58.731C86.9628 58.635 87.2148 58.533 87.4248 58.425C87.6348 58.317 87.8088 58.218 87.9468 58.128C88.0908 58.032 88.2138 57.984 88.3158 57.984C88.4478 57.984 88.5498 58.035 88.6218 58.137L89.0718 58.722ZM96.2846 55.896C95.5466 55.92 94.9166 55.98 94.3946 56.076C93.8786 56.166 93.4556 56.286 93.1256 56.436C92.8016 56.586 92.5646 56.763 92.4146 56.967C92.2706 57.171 92.1986 57.399 92.1986 57.651C92.1986 57.891 92.2376 58.098 92.3156 58.272C92.3936 58.446 92.4986 58.59 92.6306 58.704C92.7686 58.812 92.9276 58.893 93.1076 58.947C93.2936 58.995 93.4916 59.019 93.7016 59.019C93.9836 59.019 94.2416 58.992 94.4756 58.938C94.7096 58.878 94.9286 58.794 95.1326 58.686C95.3426 58.578 95.5406 58.449 95.7266 58.299C95.9186 58.149 96.1046 57.978 96.2846 57.786V55.896ZM91.1096 52.17C91.6136 51.684 92.1566 51.321 92.7386 51.081C93.3206 50.841 93.9656 50.721 94.6736 50.721C95.1836 50.721 95.6366 50.805 96.0326 50.973C96.4286 51.141 96.7616 51.375 97.0316 51.675C97.3016 51.975 97.5056 52.338 97.6436 52.764C97.7816 53.19 97.8506 53.658 97.8506 54.168V60H97.1396C96.9836 60 96.8636 59.976 96.7796 59.928C96.6956 59.874 96.6296 59.772 96.5816 59.622L96.4016 58.758C96.1616 58.98 95.9276 59.178 95.6996 59.352C95.4716 59.52 95.2316 59.664 94.9796 59.784C94.7276 59.898 94.4576 59.985 94.1696 60.045C93.8876 60.111 93.5726 60.144 93.2246 60.144C92.8706 60.144 92.5376 60.096 92.2256 60C91.9136 59.898 91.6406 59.748 91.4066 59.55C91.1786 59.352 90.9956 59.103 90.8576 58.803C90.7256 58.497 90.6596 58.137 90.6596 57.723C90.6596 57.363 90.7586 57.018 90.9566 56.688C91.1546 56.352 91.4756 56.055 91.9196 55.797C92.3636 55.539 92.9426 55.329 93.6566 55.167C94.3706 54.999 95.2466 54.903 96.2846 54.879V54.168C96.2846 53.46 96.1316 52.926 95.8256 52.566C95.5196 52.2 95.0726 52.017 94.4846 52.017C94.0886 52.017 93.7556 52.068 93.4856 52.17C93.2216 52.266 92.9906 52.377 92.7926 52.503C92.6006 52.623 92.4326 52.734 92.2886 52.836C92.1506 52.932 92.0126 52.98 91.8746 52.98C91.7666 52.98 91.6736 52.953 91.5956 52.899C91.5176 52.839 91.4516 52.767 91.3976 52.683L91.1096 52.17ZM107.948 50.883V60H106.994C106.766 60 106.622 59.889 106.562 59.667L106.436 58.686C106.04 59.124 105.596 59.478 105.104 59.748C104.612 60.012 104.048 60.144 103.412 60.144C102.914 60.144 102.473 60.063 102.089 59.901C101.711 59.733 101.393 59.499 101.135 59.199C100.877 58.899 100.682 58.536 100.55 58.11C100.424 57.684 100.361 57.213 100.361 56.697V50.883H101.963V56.697C101.963 57.387 102.119 57.921 102.431 58.299C102.749 58.677 103.232 58.866 103.88 58.866C104.354 58.866 104.795 58.755 105.203 58.533C105.617 58.305 105.998 57.993 106.346 57.597V50.883H107.948ZM118.136 60H116.597C116.465 60 116.36 59.967 116.282 59.901C116.21 59.829 116.15 59.751 116.102 59.667L113.807 56.094C113.783 56.178 113.756 56.262 113.726 56.346C113.702 56.424 113.666 56.496 113.618 56.562L111.494 59.667C111.434 59.751 111.368 59.829 111.296 59.901C111.23 59.967 111.137 60 111.017 60H109.586L112.781 55.32L109.712 50.883H111.251C111.383 50.883 111.479 50.904 111.539 50.946C111.599 50.988 111.653 51.048 111.701 51.126L113.942 54.546C113.99 54.372 114.065 54.204 114.167 54.042L116.129 51.162C116.183 51.078 116.24 51.012 116.3 50.964C116.366 50.91 116.444 50.883 116.534 50.883H118.01L114.941 55.239L118.136 60ZM119.503 59.01C119.503 58.854 119.53 58.707 119.584 58.569C119.644 58.431 119.722 58.311 119.818 58.209C119.92 58.107 120.04 58.026 120.178 57.966C120.316 57.906 120.463 57.876 120.619 57.876C120.775 57.876 120.922 57.906 121.06 57.966C121.198 58.026 121.318 58.107 121.42 58.209C121.522 58.311 121.603 58.431 121.663 58.569C121.723 58.707 121.753 58.854 121.753 59.01C121.753 59.172 121.723 59.322 121.663 59.46C121.603 59.592 121.522 59.709 121.42 59.811C121.318 59.913 121.198 59.991 121.06 60.045C120.922 60.105 120.775 60.135 120.619 60.135C120.463 60.135 120.316 60.105 120.178 60.045C120.04 59.991 119.92 59.913 119.818 59.811C119.722 59.709 119.644 59.592 119.584 59.46C119.53 59.322 119.503 59.172 119.503 59.01ZM123.917 59.01C123.917 58.854 123.944 58.707 123.998 58.569C124.058 58.431 124.136 58.311 124.232 58.209C124.334 58.107 124.454 58.026 124.592 57.966C124.73 57.906 124.877 57.876 125.033 57.876C125.189 57.876 125.336 57.906 125.474 57.966C125.612 58.026 125.732 58.107 125.834 58.209C125.936 58.311 126.017 58.431 126.077 58.569C126.137 58.707 126.167 58.854 126.167 59.01C126.167 59.172 126.137 59.322 126.077 59.46C126.017 59.592 125.936 59.709 125.834 59.811C125.732 59.913 125.612 59.991 125.474 60.045C125.336 60.105 125.189 60.135 125.033 60.135C124.877 60.135 124.73 60.105 124.592 60.045C124.454 59.991 124.334 59.913 124.232 59.811C124.136 59.709 124.058 59.592 123.998 59.46C123.944 59.322 123.917 59.172 123.917 59.01ZM128.331 59.01C128.331 58.854 128.358 58.707 128.412 58.569C128.472 58.431 128.55 58.311 128.646 58.209C128.748 58.107 128.868 58.026 129.006 57.966C129.144 57.906 129.291 57.876 129.447 57.876C129.603 57.876 129.75 57.906 129.888 57.966C130.026 58.026 130.146 58.107 130.248 58.209C130.35 58.311 130.431 58.431 130.491 58.569C130.551 58.707 130.581 58.854 130.581 59.01C130.581 59.172 130.551 59.322 130.491 59.46C130.431 59.592 130.35 59.709 130.248 59.811C130.146 59.913 130.026 59.991 129.888 60.045C129.75 60.105 129.603 60.135 129.447 60.135C129.291 60.135 129.144 60.105 129.006 60.045C128.868 59.991 128.748 59.913 128.646 59.811C128.55 59.709 128.472 59.592 128.412 59.46C128.358 59.322 128.331 59.172 128.331 59.01Z" fill="black"/>
</svg>
