<svg width="64" height="64" viewBox="0 0 64 64" fill="none" xmlns="http://www.w3.org/2000/svg">
<g filter="url(#filter0_d_0_611)">
<rect x="8" y="6" width="48" height="48" rx="8" fill="#FBBA10"/>
</g>
<path d="M41.675 32.6649L40.1398 31.3524C40.2125 30.907 40.25 30.4523 40.25 29.9977C40.25 29.543 40.2125 29.0883 40.1398 28.643L41.675 27.3305C41.7908 27.2313 41.8737 27.0993 41.9126 26.952C41.9515 26.8046 41.9447 26.6489 41.893 26.5055L41.8719 26.4445C41.4492 25.2633 40.8164 24.1684 40.0039 23.2125L39.9617 23.1633C39.8631 23.0474 39.7318 22.9641 39.5849 22.9243C39.4381 22.8846 39.2826 22.8903 39.1391 22.9406L37.2336 23.618C36.5305 23.0414 35.7453 22.5867 34.8969 22.268L34.5289 20.2758C34.5011 20.1259 34.4284 19.988 34.3204 19.8804C34.2124 19.7728 34.0742 19.7006 33.9242 19.6734L33.8609 19.6617C32.6398 19.4414 31.3555 19.4414 30.1344 19.6617L30.0711 19.6734C29.9211 19.7006 29.7829 19.7728 29.6749 19.8804C29.5669 19.988 29.4942 20.1259 29.4664 20.2758L29.0961 22.2773C28.2544 22.5962 27.4706 23.0506 26.7758 23.6227L24.8562 22.9406C24.7127 22.8899 24.5572 22.884 24.4102 22.9238C24.2633 22.9635 24.1319 23.0471 24.0336 23.1633L23.9914 23.2125C23.1799 24.169 22.5471 25.2638 22.1234 26.4445L22.1023 26.5055C21.9969 26.7984 22.0836 27.1266 22.3203 27.3305L23.8742 28.657C23.8016 29.0977 23.7664 29.5477 23.7664 29.9953C23.7664 30.4453 23.8016 30.8953 23.8742 31.3336L22.3203 32.6602C22.2045 32.7593 22.1216 32.8913 22.0827 33.0387C22.0438 33.1861 22.0506 33.3418 22.1023 33.4852L22.1234 33.5461C22.5476 34.7274 23.1758 35.8172 23.9914 36.7781L24.0336 36.8274C24.1322 36.9432 24.2635 37.0266 24.4104 37.0663C24.5572 37.106 24.7127 37.1004 24.8562 37.05L26.7758 36.368C27.4742 36.9422 28.2547 37.3969 29.0961 37.7133L29.4664 39.7149C29.4942 39.8648 29.5669 40.0027 29.6749 40.1102C29.7829 40.2178 29.9211 40.29 30.0711 40.3172L30.1344 40.3289C31.3667 40.5504 32.6286 40.5504 33.8609 40.3289L33.9242 40.3172C34.0742 40.29 34.2124 40.2178 34.3204 40.1102C34.4284 40.0027 34.5011 39.8648 34.5289 39.7149L34.8969 37.7227C35.745 37.4047 36.5345 36.9486 37.2336 36.3727L39.1391 37.05C39.2826 37.1008 39.4381 37.1067 39.5851 37.0669C39.732 37.0271 39.8634 36.9436 39.9617 36.8274L40.0039 36.7781C40.8195 35.8148 41.4477 34.7274 41.8719 33.5461L41.893 33.4852C41.9984 33.1969 41.9117 32.8688 41.675 32.6649ZM38.4758 28.9195C38.5344 29.2734 38.5648 29.6367 38.5648 30C38.5648 30.3633 38.5344 30.7266 38.4758 31.0805L38.3211 32.0203L40.0719 33.518C39.8065 34.1294 39.4714 34.7083 39.0734 35.243L36.8984 34.4719L36.1625 35.0766C35.6023 35.5359 34.9789 35.8969 34.3039 36.15L33.4109 36.4852L32.9914 38.7586C32.3295 38.8336 31.6612 38.8336 30.9992 38.7586L30.5797 36.4805L29.6937 36.1406C29.0258 35.8875 28.4047 35.5266 27.8492 35.0695L27.1133 34.4625L24.9242 35.2406C24.5258 34.7039 24.193 34.125 23.9258 33.5156L25.6953 32.0039L25.543 31.0664C25.4867 30.7172 25.4562 30.3563 25.4562 30C25.4562 29.6414 25.4844 29.2828 25.543 28.9336L25.6953 27.9961L23.9258 26.4844C24.1906 25.8727 24.5258 25.2961 24.9242 24.7594L27.1133 25.5375L27.8492 24.9305C28.4047 24.4734 29.0258 24.1125 29.6937 23.8594L30.582 23.5242L31.0016 21.2461C31.6601 21.1711 32.3328 21.1711 32.9937 21.2461L33.4133 23.5195L34.3062 23.8547C34.9789 24.1078 35.6047 24.4688 36.1648 24.9281L36.9008 25.5328L39.0758 24.7617C39.4742 25.2984 39.807 25.8773 40.0742 26.4867L38.3234 27.9844L38.4758 28.9195ZM32 25.6406C29.7219 25.6406 27.875 27.4875 27.875 29.7656C27.875 32.0438 29.7219 33.8906 32 33.8906C34.2781 33.8906 36.125 32.0438 36.125 29.7656C36.125 27.4875 34.2781 25.6406 32 25.6406ZM33.8562 31.6219C33.6128 31.866 33.3234 32.0597 33.0049 32.1916C32.6863 32.3235 32.3448 32.3912 32 32.3906C31.2992 32.3906 30.6406 32.1164 30.1437 31.6219C29.8996 31.3784 29.706 31.0891 29.574 30.7705C29.4421 30.4519 29.3745 30.1104 29.375 29.7656C29.375 29.0648 29.6492 28.4063 30.1437 27.9094C30.6406 27.4125 31.2992 27.1406 32 27.1406C32.7008 27.1406 33.3594 27.4125 33.8562 27.9094C34.1004 28.1528 34.294 28.4422 34.426 28.7607C34.5579 29.0793 34.6255 29.4208 34.625 29.7656C34.625 30.4664 34.3508 31.125 33.8562 31.6219Z" fill="white"/>
<defs>
<filter id="filter0_d_0_611" x="0" y="0" width="64" height="64" filterUnits="userSpaceOnUse" color-interpolation-filters="sRGB">
<feFlood flood-opacity="0" result="BackgroundImageFix"/>
<feColorMatrix in="SourceAlpha" type="matrix" values="0 0 0 0 0 0 0 0 0 0 0 0 0 0 0 0 0 0 127 0" result="hardAlpha"/>
<feOffset dy="2"/>
<feGaussianBlur stdDeviation="4"/>
<feColorMatrix type="matrix" values="0 0 0 0 0.858824 0 0 0 0 0.886275 0 0 0 0 0.917647 0 0 0 0.3 0"/>
<feBlend mode="normal" in2="BackgroundImageFix" result="effect1_dropShadow_0_611"/>
<feBlend mode="normal" in="SourceGraphic" in2="effect1_dropShadow_0_611" result="shape"/>
</filter>
</defs>
</svg>
