<svg width="18" height="22" viewBox="0 0 18 22" fill="none" xmlns="http://www.w3.org/2000/svg">
<path d="M1.0002 21.2429C0.868792 21.2429 0.738671 21.217 0.617274 21.1667C0.495877 21.1164 0.385584 21.0427 0.292697 20.9497C0.19981 20.8568 0.126151 20.7464 0.0759289 20.625C0.0257066 20.5036 -9.44833e-05 20.3734 2.59982e-07 20.242V2.2431C0.000274461 2.04539 0.0591003 1.85219 0.169057 1.68787C0.279013 1.52355 0.435173 1.39547 0.617837 1.3198C0.800501 1.24413 1.00149 1.22425 1.19543 1.26267C1.38938 1.3011 1.56761 1.3961 1.70762 1.5357C2.3533 2.072 3.17024 2.35838 4.00946 2.34262C4.27585 2.34198 4.54154 2.31517 4.80269 2.26257C5.52655 2.1264 6.23627 1.92363 6.9228 1.65684L7.02376 1.61934C7.64935 1.35887 8.32209 1.23071 8.99964 1.24292C9.80263 1.27058 10.592 1.45812 11.3217 1.79457L11.3469 1.80467L11.3707 1.81404C11.8797 2.06323 12.4332 2.20882 12.999 2.24238C13.6338 2.20669 14.2618 2.09311 14.8689 1.90418C15.5561 1.71309 16.2253 1.4744 16.6284 1.31504C16.7801 1.25449 16.9442 1.23201 17.1065 1.24956C17.2689 1.26711 17.4244 1.32417 17.5596 1.41573C17.6948 1.5073 17.8055 1.63059 17.882 1.77482C17.9585 1.91905 17.9985 2.07983 17.9986 2.2431V20.242C17.9986 20.4125 17.955 20.5802 17.8721 20.7291C17.7891 20.878 17.6694 21.0033 17.5244 21.0929C17.3794 21.1826 17.2139 21.2337 17.0435 21.2414C16.8732 21.2491 16.7038 21.2131 16.5513 21.1369C15.4384 20.605 14.2304 20.3007 12.9983 20.242C12.3802 20.2374 11.7698 20.3792 11.2171 20.6559L11.0873 20.7136C10.4393 21.0461 9.72418 21.2268 8.99603 21.2422C8.19271 21.213 7.40308 21.0253 6.67257 20.6898L6.64877 20.6805L6.62498 20.6711C6.11593 20.4219 5.56245 20.2763 4.99668 20.2427C4.36246 20.2813 3.73503 20.3948 3.12752 20.5809C2.53148 20.7482 1.94423 20.9453 1.36797 21.1715C1.25099 21.2183 1.1262 21.2426 1.0002 21.2429ZM5.00028 18.2431C5.80196 18.2707 6.59009 18.4578 7.3187 18.7933H7.32375L7.34682 18.8027L7.3699 18.8121C7.87927 19.0611 8.43294 19.2066 8.99892 19.2404C9.46143 19.2212 9.91286 19.0929 10.3164 18.8661L10.3647 18.8445L10.4051 18.8265C11.2142 18.435 12.1024 18.2347 13.0012 18.2409C14.0223 18.2652 15.0338 18.4434 16.0018 18.7695V3.65504C15.7854 3.7221 15.5943 3.77907 15.4076 3.83171C14.6266 4.07222 13.8177 4.21039 13.0012 4.24274C12.1961 4.2136 11.4048 4.02564 10.6727 3.68965L10.6496 3.68028L10.6265 3.6709C10.1169 3.42254 9.56334 3.27699 8.99748 3.24256C8.55982 3.23137 8.12505 3.31655 7.72397 3.49207L7.65691 3.51659L7.63167 3.52596C6.8416 3.83294 6.02497 4.06661 5.1921 4.22399C4.80131 4.30263 4.40375 4.34272 4.00513 4.3437C3.32057 4.34321 2.64154 4.22113 1.99968 3.98314V18.8301C2.21602 18.7616 2.41216 18.7046 2.59389 18.6549C3.37467 18.4133 4.18363 18.2747 5.00028 18.2424V18.2431Z" fill="#9AA8B8"/>
<path d="M4.00006 7.24259C4.00006 6.97733 4.10544 6.72293 4.29301 6.53536C4.48059 6.34779 4.73499 6.24241 5.00026 6.24241H12.9997C13.1333 6.23882 13.2662 6.26203 13.3906 6.31066C13.5151 6.3593 13.6285 6.43237 13.7242 6.52556C13.82 6.61876 13.8961 6.73019 13.948 6.85328C14 6.97637 14.0268 7.10862 14.0268 7.24223C14.0268 7.37584 14 7.50809 13.948 7.63118C13.8961 7.75427 13.82 7.8657 13.7242 7.9589C13.6285 8.05209 13.5151 8.12516 13.3906 8.1738C13.2662 8.22243 13.1333 8.24564 12.9997 8.24205H5.00026C4.73512 8.24205 4.48082 8.13677 4.29327 7.94936C4.10571 7.76194 4.00025 7.50773 4.00006 7.24259Z" fill="#9AA8B8"/>
<path d="M4.00006 11.2426C4.00006 10.9774 4.10544 10.723 4.29301 10.5354C4.48059 10.3478 4.73499 10.2425 5.00026 10.2425H12.9997C13.1333 10.2389 13.2662 10.2621 13.3906 10.3107C13.5151 10.3593 13.6285 10.4324 13.7242 10.5256C13.82 10.6188 13.8961 10.7302 13.948 10.8533C14 10.9764 14.0268 11.1087 14.0268 11.2423C14.0268 11.3759 14 11.5081 13.948 11.6312C13.8961 11.7543 13.82 11.8657 13.7242 11.9589C13.6285 12.0521 13.5151 12.1252 13.3906 12.1738C13.2662 12.2225 13.1333 12.2457 12.9997 12.2421H5.00026C4.73512 12.2421 4.48082 12.1368 4.29327 11.9494C4.10571 11.762 4.00025 11.5078 4.00006 11.2426Z" fill="#9AA8B8"/>
<path d="M4.00006 15.2426C4.00006 14.9774 4.10544 14.723 4.29301 14.5354C4.48059 14.3478 4.73499 14.2425 5.00026 14.2425H9.00034C9.1339 14.2389 9.26683 14.2621 9.39127 14.3107C9.51571 14.3593 9.62915 14.4324 9.72488 14.5256C9.82062 14.6188 9.89671 14.7302 9.94867 14.8533C10.0006 14.9764 10.0274 15.1087 10.0274 15.2423C10.0274 15.3759 10.0006 15.5081 9.94867 15.6312C9.89671 15.7543 9.82062 15.8657 9.72488 15.9589C9.62915 16.0521 9.51571 16.1252 9.39127 16.1738C9.26683 16.2225 9.1339 16.2457 9.00034 16.2421H5.00026C4.73512 16.2421 4.48082 16.1368 4.29327 15.9494C4.10571 15.762 4.00025 15.5078 4.00006 15.2426Z" fill="#9AA8B8"/>
</svg>
