<svg width="18" height="22" viewBox="0 0 18 22" fill="none" xmlns="http://www.w3.org/2000/svg">
<path d="M17.1011 21.2112C17.05 21.2112 16.999 21.2069 16.9486 21.1983L10.8095 20.1537C10.2125 20.2622 9.60686 20.3166 9 20.3163C6.67687 20.3364 4.42674 19.5101 2.67462 17.9935C1.84163 17.2849 1.17167 16.4064 0.710195 15.4177C0.248717 14.4291 0.00650989 13.3533 0 12.2634C0.00660277 11.1736 0.248855 10.098 0.71033 9.10941C1.1718 8.12086 1.84171 7.24251 2.67462 6.53393C4.42674 5.01731 6.67687 4.19103 9 4.21118C11.3231 4.19103 13.5733 5.01731 15.3254 6.53393C16.1584 7.24258 16.8283 8.12103 17.2898 9.1097C17.7513 10.0984 17.9935 11.1741 18 12.264C17.9957 13.8083 17.5093 15.3132 16.6078 16.5708L17.939 19.993C17.9916 20.1285 18.0104 20.2746 17.9935 20.4189C17.9767 20.5631 17.9248 20.7011 17.8423 20.8209C17.7598 20.9408 17.6492 21.0389 17.5201 21.1068C17.391 21.1746 17.2472 21.2109 17.1011 21.2112ZM10.8004 18.349C10.8513 18.3491 10.9021 18.3534 10.9523 18.3619L15.6901 19.1678L14.7503 16.7521C14.6934 16.6057 14.6762 16.4469 14.7005 16.2918C14.7248 16.1366 14.7896 15.9905 14.8886 15.8682C15.7315 14.8534 16.1954 13.5801 16.2016 12.264C16.2016 8.81023 12.9714 6.00099 9.0013 6.00099C5.03123 6.00099 1.79974 8.81023 1.79974 12.2634C1.79974 15.7166 5.02993 18.5265 9 18.5265C9.54486 18.5268 10.0884 18.4732 10.6226 18.3664C10.6811 18.3548 10.7407 18.349 10.8004 18.349Z" fill="#9AA8B8"/>
<path d="M4.50037 10.4744C4.50037 10.2371 4.59521 10.0094 4.76403 9.84162C4.93285 9.67379 5.16181 9.57951 5.40056 9.57951H12.6002C12.7204 9.5763 12.84 9.59706 12.952 9.64058C13.064 9.68409 13.1661 9.74947 13.2523 9.83286C13.3384 9.91625 13.4069 10.0159 13.4537 10.1261C13.5004 10.2362 13.5245 10.3545 13.5245 10.4741C13.5245 10.5936 13.5004 10.712 13.4537 10.8221C13.4069 10.9322 13.3384 11.0319 13.2523 11.1153C13.1661 11.1987 13.064 11.2641 12.952 11.3076C12.84 11.3511 12.7204 11.3719 12.6002 11.3687H5.40056C5.16193 11.3687 4.93306 11.2745 4.76426 11.1068C4.59546 10.9391 4.50054 10.7116 4.50037 10.4744Z" fill="#9AA8B8"/>
<path d="M6.30011 14.0534C6.30011 13.8161 6.39495 13.5884 6.56377 13.4206C6.73259 13.2528 6.96156 13.1585 7.2003 13.1585H10.8004C10.9206 13.1553 11.0403 13.1761 11.1523 13.2196C11.2643 13.2631 11.3664 13.3285 11.4525 13.4119C11.5387 13.4952 11.6072 13.5949 11.6539 13.7051C11.7007 13.8152 11.7248 13.9335 11.7248 14.0531C11.7248 14.1726 11.7007 14.291 11.6539 14.4011C11.6072 14.5112 11.5387 14.6109 11.4525 14.6943C11.3664 14.7777 11.2643 14.8431 11.1523 14.8866C11.0403 14.9301 10.9206 14.9509 10.8004 14.9477H7.2003C6.96167 14.9477 6.7328 14.8535 6.564 14.6858C6.3952 14.5181 6.30028 14.2906 6.30011 14.0534Z" fill="#9AA8B8"/>
</svg>
