<svg width="18" height="22" viewBox="0 0 18 22" fill="none" xmlns="http://www.w3.org/2000/svg">
<g clip-path="url(#clip0_0_1039)">
<path d="M15.7498 6.46895H2.25016C1.65338 6.46895 1.08104 6.23188 0.659057 5.80989C0.23707 5.38791 0 4.81557 0 4.21879C0 3.62201 0.23707 3.04967 0.659057 2.62769C1.08104 2.2057 1.65338 1.96863 2.25016 1.96863L15.7498 1.96863C16.3466 1.96863 16.919 2.2057 17.3409 2.62769C17.7629 3.04967 18 3.62201 18 4.21879C18 4.81557 17.7629 5.38791 17.3409 5.80989C16.919 6.23188 16.3466 6.46895 15.7498 6.46895ZM2.25016 3.76837C2.19105 3.76837 2.13253 3.78001 2.07792 3.80263C2.02331 3.82525 1.97369 3.8584 1.9319 3.9002C1.8901 3.94199 1.85695 3.99161 1.83433 4.04622C1.81171 4.10083 1.80006 4.15936 1.80006 4.21847C1.80006 4.27757 1.81171 4.3361 1.83433 4.39071C1.85695 4.44532 1.8901 4.49494 1.9319 4.53673C1.97369 4.57853 2.02331 4.61168 2.07792 4.6343C2.13253 4.65692 2.19105 4.66856 2.25016 4.66856H15.7498C15.8089 4.66856 15.8675 4.65692 15.9221 4.6343C15.9767 4.61168 16.0263 4.57853 16.0681 4.53673C16.1099 4.49494 16.1431 4.44532 16.1657 4.39071C16.1883 4.3361 16.1999 4.27757 16.1999 4.21847C16.1999 4.15936 16.1883 4.10083 16.1657 4.04622C16.1431 3.99161 16.1099 3.94199 16.0681 3.9002C16.0263 3.8584 15.9767 3.82525 15.9221 3.80263C15.8675 3.78001 15.8089 3.76837 15.7498 3.76837H2.25016Z" fill="#9AA8B8"/>
<path d="M15.3 19.9686C15.1782 19.9688 15.0576 19.9441 14.9457 19.8959L8.99996 17.3479L3.05492 19.8959C2.91805 19.9546 2.76878 19.9783 2.62048 19.9651C2.47218 19.9518 2.32948 19.902 2.20517 19.8201C2.08085 19.7381 1.9788 19.6266 1.90815 19.4956C1.8375 19.3645 1.80046 19.218 1.80035 19.0691L1.80035 5.56876C1.80053 5.33006 1.89542 5.1012 2.0642 4.93241C2.23299 4.76363 2.46185 4.66874 2.70055 4.66856H15.3C15.5387 4.66874 15.7676 4.76363 15.9364 4.93241C16.1052 5.1012 16.2001 5.33006 16.2002 5.56876V19.0684C16.2001 19.3071 16.1052 19.536 15.9364 19.7048C15.7676 19.8736 15.5387 19.9685 15.3 19.9686ZM9.00061 15.4683C9.12267 15.4681 9.24348 15.4928 9.35563 15.541L14.4011 17.7035V6.4683H3.60009V17.7042L8.6456 15.5416C8.7577 15.4933 8.87851 15.4683 9.00061 15.4683Z" fill="#9AA8B8"/>
<path d="M11.0639 8.53219C11.2345 8.37235 11.4605 8.28512 11.6942 8.28894C11.9279 8.29276 12.1509 8.38732 12.3162 8.55264C12.4814 8.71796 12.5759 8.94106 12.5796 9.17477C12.5833 9.40847 12.4959 9.63446 12.336 9.80492L9.63606 12.5049C9.46725 12.6736 9.23836 12.7683 8.99969 12.7683C8.76103 12.7683 8.53213 12.6736 8.36333 12.5049L6.56358 10.7051C6.40114 10.5351 6.3117 10.3082 6.31439 10.073C6.31708 9.83785 6.4117 9.61308 6.57799 9.44679C6.74429 9.28049 6.96906 9.18588 7.20422 9.18319C7.43938 9.18049 7.66626 9.26994 7.83632 9.43238L9.00002 10.5961L11.0639 8.53219Z" fill="#9AA8B8"/>
</g>
<defs>
<clipPath id="clip0_0_1039">
<rect width="18" height="18" fill="white" transform="translate(0 1.96863)"/>
</clipPath>
</defs>
</svg>
