<svg width="19" height="24" viewBox="0 0 19 24" fill="none" xmlns="http://www.w3.org/2000/svg">
<path d="M9.31172 7.55736C8.52255 7.5572 7.75115 7.35004 7.09506 6.96209C6.43896 6.57413 5.92763 6.0228 5.62572 5.3778C5.3238 4.7328 5.24486 4.02309 5.39886 3.3384C5.55287 2.65371 5.93291 2.02479 6.49094 1.53115C7.04897 1.03752 7.75993 0.701326 8.53393 0.56509C9.30793 0.428854 10.1102 0.49869 10.8394 0.765768C11.5685 1.03285 12.1917 1.48517 12.6303 2.06556C13.0689 2.64595 13.303 3.32833 13.3032 4.02644C13.3022 4.96263 12.8814 5.86021 12.133 6.52219C11.3847 7.18417 10.37 7.55646 9.31172 7.55736ZM9.31172 2.84947C9.04854 2.8493 8.7912 2.91819 8.57228 3.04741C8.35335 3.17664 8.18267 3.3604 8.08182 3.57545C7.98097 3.7905 7.95448 4.02717 8.00571 4.25554C8.05694 4.4839 8.18358 4.6937 8.36962 4.85839C8.55566 5.02308 8.79273 5.13526 9.05084 5.18074C9.30896 5.22622 9.57653 5.20296 9.81971 5.11391C10.0629 5.02485 10.2707 4.87399 10.417 4.68042C10.5632 4.48685 10.6413 4.25926 10.6413 4.02644C10.641 3.71451 10.5009 3.4154 10.2516 3.19474C10.0024 2.97409 9.66435 2.84992 9.31172 2.84947Z" fill="#9AA8B8"/>
<path d="M11.4633 8.82344C11.7063 8.73438 11.9737 8.71104 12.2317 8.75635C12.4897 8.80166 12.7267 8.91359 12.9128 9.07801L18.2338 13.7851C18.362 13.8934 18.4644 14.0233 18.5351 14.1671C18.6057 14.311 18.6432 14.4658 18.6452 14.6227C18.6472 14.7795 18.6138 14.9351 18.5469 15.0803C18.48 15.2255 18.381 15.3575 18.2556 15.4684C18.1302 15.5793 17.9811 15.6669 17.8169 15.7261C17.6527 15.7853 17.4768 15.8148 17.2996 15.813C17.1223 15.8112 16.9472 15.7781 16.7846 15.7156C16.622 15.6531 16.4752 15.5625 16.3527 15.4491L13.3022 12.7506V22.8546C13.2929 23.1612 13.1487 23.4524 12.9003 23.6664C12.6519 23.8803 12.3189 24 11.9722 24C11.6255 24 11.2925 23.8803 11.0441 23.6664C10.7957 23.4524 10.6515 23.1612 10.6422 22.8546V9.91046C10.6423 9.67776 10.7203 9.4503 10.8664 9.25682C11.0126 9.06334 11.2203 8.91252 11.4633 8.82344Z" fill="#9AA8B8"/>
<path d="M7.16009 8.82344C7.4031 8.91252 7.61081 9.06334 7.75696 9.25682C7.90311 9.4503 7.98115 9.67776 7.98122 9.91046V22.8546C7.97191 23.1612 7.8277 23.4524 7.57929 23.6664C7.33087 23.8803 6.99788 24 6.65119 24C6.30451 24 5.97152 23.8803 5.7231 23.6664C5.47469 23.4524 5.33048 23.1612 5.32117 22.8546V12.7515L2.27071 15.45C2.0208 15.6692 1.68285 15.792 1.33086 15.7913C0.978862 15.7906 0.641511 15.6666 0.392676 15.4464C0.143841 15.2261 0.00380108 14.9277 0.00322236 14.6163C0.00264365 14.3049 0.141573 14.006 0.389588 13.7851L5.71064 9.07801C5.89674 8.91359 6.13375 8.80166 6.39173 8.75635C6.64972 8.71104 6.9171 8.73438 7.16009 8.82344Z" fill="#9AA8B8"/>
</svg>
