<svg width="18" height="22" viewBox="0 0 18 22" fill="none" xmlns="http://www.w3.org/2000/svg">
<path d="M4.7625 14.3745L3.1875 12.7304C3.925 11.9785 4.79075 11.3828 5.78475 10.9433C6.77825 10.5033 7.85 10.2834 9 10.2834C10.15 10.2834 11.222 10.5064 12.216 10.9525C13.2095 11.3986 14.075 12.004 14.8125 12.7687L13.2375 14.3745C12.6875 13.8138 12.05 13.3741 11.325 13.0554C10.6 12.7368 9.825 12.5775 9 12.5775C8.175 12.5775 7.4 12.7368 6.675 13.0554C5.95 13.3741 5.3125 13.8138 4.7625 14.3745ZM1.575 11.1245L0 9.51866C1.15 8.32062 2.49375 7.38385 4.03125 6.70836C5.56875 6.03287 7.225 5.69513 9 5.69513C10.775 5.69513 12.4312 6.03287 13.9688 6.70836C15.5063 7.38385 16.85 8.32062 18 9.51866L16.425 11.1245C15.4625 10.1432 14.347 9.37515 13.0785 8.82048C11.8095 8.26633 10.45 7.98925 9 7.98925C7.55 7.98925 6.1905 8.26633 4.9215 8.82048C3.653 9.37515 2.5375 10.1432 1.575 11.1245ZM9 18.6951L11.6437 15.9804C11.3062 15.6363 10.9125 15.3653 10.4625 15.1675C10.0125 14.9702 9.525 14.8716 9 14.8716C8.475 14.8716 7.9875 14.9702 7.5375 15.1675C7.0875 15.3653 6.69375 15.6363 6.35625 15.9804L9 18.6951Z" fill="#9AA8B8"/>
</svg>
