<svg width="18" height="22" viewBox="0 0 18 22" fill="none" xmlns="http://www.w3.org/2000/svg">
<path d="M9 17.3419C10.125 17.3419 11.0814 16.9532 11.8692 16.1757C12.6564 15.3976 13.05 14.453 13.05 13.3419C13.05 12.2308 12.6564 11.2862 11.8692 10.5081C11.0814 9.73063 10.125 9.34189 9 9.34189C7.875 9.34189 6.9186 9.73063 6.1308 10.5081C5.3436 11.2862 4.95 12.2308 4.95 13.3419C4.95 14.453 5.3436 15.3976 6.1308 16.1757C6.9186 16.9532 7.875 17.3419 9 17.3419ZM9 15.5641C8.37 15.5641 7.8375 15.3493 7.4025 14.9197C6.9675 14.49 6.75 13.9641 6.75 13.3419C6.75 12.7197 6.9675 12.1937 7.4025 11.7641C7.8375 11.3345 8.37 11.1197 9 11.1197C9.63 11.1197 10.1625 11.3345 10.5975 11.7641C11.0325 12.1937 11.25 12.7197 11.25 13.3419C11.25 13.9641 11.0325 14.49 10.5975 14.9197C10.1625 15.3493 9.63 15.5641 9 15.5641ZM1.8 20.453C1.305 20.453 0.8814 20.2791 0.5292 19.9312C0.1764 19.5828 0 19.1641 0 18.6752V8.00856C0 7.51967 0.1764 7.1013 0.5292 6.75345C0.8814 6.405 1.305 6.23078 1.8 6.23078H4.635L6.3 4.453H11.7L13.365 6.23078H16.2C16.695 6.23078 17.1189 6.405 17.4717 6.75345C17.8239 7.1013 18 7.51967 18 8.00856V18.6752C18 19.1641 17.8239 19.5828 17.4717 19.9312C17.1189 20.2791 16.695 20.453 16.2 20.453H1.8ZM16.2 18.6752V8.00856H12.555L10.9125 6.23078H7.0875L5.445 8.00856H1.8V18.6752H16.2Z" fill="#9AA8B8"/>
</svg>
