<svg width="19" height="22" viewBox="0 0 19 22" fill="none" xmlns="http://www.w3.org/2000/svg">
<path fill-rule="evenodd" clip-rule="evenodd" d="M8.18182 17.5412H2.45455C1.80356 17.5412 1.17924 17.2778 0.71892 16.8089C0.258603 16.3401 0 15.7042 0 15.0412V8.37451C0 7.71147 0.258603 7.07559 0.71892 6.60674C1.17924 6.1379 1.80356 5.87451 2.45455 5.87451H15.5455C16.1964 5.87451 16.8208 6.1379 17.2811 6.60674C17.7414 7.07559 18 7.71147 18 8.37451V15.0412C18 15.7042 17.7414 16.3401 17.2811 16.8089C16.8208 17.2778 16.1964 17.5412 15.5455 17.5412H9.81818V19.2078H12.2727C12.4897 19.2078 12.6978 19.2956 12.8513 19.4519C13.0047 19.6082 13.0909 19.8202 13.0909 20.0412C13.0909 20.2622 13.0047 20.4742 12.8513 20.6304C12.6978 20.7867 12.4897 20.8745 12.2727 20.8745H5.72727C5.51028 20.8745 5.30217 20.7867 5.14873 20.6304C4.99529 20.4742 4.90909 20.2622 4.90909 20.0412C4.90909 19.8202 4.99529 19.6082 5.14873 19.4519C5.30217 19.2956 5.51028 19.2078 5.72727 19.2078H8.18182V17.5412ZM2.45455 7.54118H15.5455C15.7625 7.54118 15.9706 7.62898 16.124 7.78526C16.2774 7.94154 16.3636 8.1535 16.3636 8.37451V15.0412C16.3636 15.2622 16.2774 15.4742 16.124 15.6304C15.9706 15.7867 15.7625 15.8745 15.5455 15.8745H2.45455C2.23755 15.8745 2.02944 15.7867 1.876 15.6304C1.72256 15.4742 1.63636 15.2622 1.63636 15.0412V8.37451C1.63636 8.1535 1.72256 7.94154 1.876 7.78526C2.02944 7.62898 2.23755 7.54118 2.45455 7.54118Z" fill="#9AA8B8"/>
</svg>
