<svg width="18" height="22" viewBox="0 0 18 22" fill="none" xmlns="http://www.w3.org/2000/svg">
<g clip-path="url(#clip0_0_1028)">
<path d="M8.64652 10.7506L9.00007 11.1041L9.35362 10.7506L11.1811 8.9231C11.2374 8.87246 11.3108 8.84491 11.3867 8.84615C11.4646 8.84743 11.539 8.87896 11.5941 8.93409L11.9443 8.58412L11.5941 8.93409C11.6492 8.98921 11.6807 9.06361 11.682 9.14154C11.6832 9.21745 11.6555 9.29091 11.6048 9.3472L9.21198 11.7401C9.21195 11.7401 9.21192 11.7401 9.21189 11.7401C9.15561 11.7964 9.07932 11.8279 8.99978 11.8279C8.9202 11.8279 8.84387 11.7963 8.78758 11.7401L7.19293 10.1454C7.14065 10.0891 7.11193 10.0148 7.11281 9.93779C7.11371 9.85938 7.14526 9.78443 7.20071 9.72897C7.25616 9.67352 7.33111 9.64197 7.40953 9.64107C7.48649 9.64019 7.5608 9.66891 7.61714 9.72119L8.64652 10.7506Z" fill="#9AA8B8" stroke="#9AA8B8"/>
<path d="M9.00127 18.2282L8.99977 18.2282C8.97905 18.2282 8.95837 18.2262 8.93802 18.2223L8.9379 18.2222C7.91115 18.0239 6.92712 17.6472 6.03048 17.1091C5.09941 16.5408 4.29201 15.7913 3.65624 14.9049L3.6554 14.9038C2.24427 12.9482 1.5 10.2137 1.5 6.72846L1.5 6.72758C1.49988 6.66093 1.52212 6.59617 1.56316 6.54365C1.6042 6.49114 1.66166 6.4539 1.72636 6.4379L1.72638 6.43797L1.73477 6.43574C2.77081 6.16038 3.72431 5.63738 4.51328 4.91187C4.51975 4.90666 4.52623 4.90146 4.53272 4.89625C4.65787 4.79567 4.78399 4.69433 4.91618 4.59116L4.91625 4.59125L4.92425 4.58473C5.40853 4.19045 5.94899 3.87073 6.52771 3.63615C7.31563 3.34821 8.15039 3.2098 8.98912 3.22806L9.00006 3.22829L9.01099 3.22805C9.85027 3.2096 10.6856 3.34801 11.474 3.63615C12.0527 3.87073 12.5932 4.19045 13.0775 4.58473L13.0774 4.58483L13.0866 4.59194C13.2141 4.69099 13.3373 4.78997 13.4591 4.88806L13.488 4.91145C14.2774 5.63686 15.2312 6.15995 16.2674 6.4357L16.2674 6.43577L16.2756 6.43781C16.3402 6.45385 16.3977 6.49111 16.4387 6.54362C16.4797 6.59613 16.5019 6.66087 16.5017 6.72749L16.5017 6.73548L16.502 6.74346C16.5854 9.52275 15.8328 12.2631 14.3415 14.6099C13.7429 15.5308 12.968 16.3241 12.0614 16.9443C11.1553 17.5641 10.1356 17.9986 9.061 18.2228C9.0413 18.2264 9.02131 18.2282 9.00127 18.2282ZM6.75792 4.19091L6.74774 4.19458L6.73772 4.19868C6.21073 4.41443 5.71908 4.70796 5.27913 5.06946C5.15451 5.16655 5.0265 5.26957 4.90868 5.36508L4.89967 5.37239L4.89101 5.38011C4.17178 6.02068 3.33866 6.52048 2.43495 6.85353L2.09855 6.9775L2.10802 7.33588C2.18692 10.3227 2.85349 12.7671 4.14375 14.5527C5.2863 16.1353 6.98711 17.2251 8.90237 17.6017L9.00917 17.6227L9.11503 17.5974C11.0268 17.1407 12.6963 15.9806 13.7911 14.3481L13.7911 14.3481L13.7944 14.3432C15.1591 12.255 15.8875 9.81511 15.891 7.32049L15.8915 6.97117L15.5637 6.85055C14.6604 6.51819 13.8277 6.01881 13.1091 5.37846L13.1007 5.37097L13.092 5.36387C12.9734 5.2674 12.8465 5.1646 12.7207 5.06715C12.2808 4.70633 11.7896 4.41308 11.2632 4.19709L11.2528 4.19281L11.2421 4.189C10.5234 3.93131 9.76312 3.80886 8.99985 3.82778C8.23656 3.80934 7.47642 3.93244 6.75792 4.19091Z" fill="#9AA8B8" stroke="#9AA8B8"/>
</g>
<defs>
<clipPath id="clip0_0_1028">
<rect width="16" height="16" fill="white" transform="translate(1 2.72644)"/>
</clipPath>
</defs>
</svg>
