<svg width="18" height="22" viewBox="0 0 18 22" fill="none" xmlns="http://www.w3.org/2000/svg">
<path fill-rule="evenodd" clip-rule="evenodd" d="M3 21.7579C2.20435 21.7579 1.44129 21.4418 0.87868 20.8792C0.316071 20.3166 2.47888e-08 19.5535 2.47888e-08 18.7579V8.75786C2.47888e-08 8.72386 2.47888e-08 8.69053 2.47888e-08 8.65786C-4.3069e-05 8.37261 0.0561011 8.09015 0.165226 7.8266C0.274352 7.56305 0.434321 7.32358 0.636 7.12186L6.879 0.878859C7.15758 0.60023 7.48832 0.379206 7.85233 0.22841C8.21634 0.0776141 8.60649 0 9.0005 0C9.39451 0 9.78466 0.0776141 10.1487 0.22841C10.5127 0.379206 10.8434 0.60023 11.122 0.878859L17.365 7.12186C17.7717 7.52917 18.0001 8.08127 18 8.65686C18 8.69019 18 8.72353 18 8.75686V18.7569C18 19.5525 17.6839 20.3156 17.1213 20.8782C16.5587 21.4408 15.7956 21.7569 15 21.7569L3 21.7579ZM9.707 2.29286L16 8.58586V18.7579C16 19.0231 15.8946 19.2774 15.7071 19.465C15.5196 19.6525 15.2652 19.7579 15 19.7579H12V14.7579C12 13.9622 11.6839 13.1991 11.1213 12.6365C10.5587 12.0739 9.79565 11.7579 9 11.7579C8.20435 11.7579 7.44129 12.0739 6.87868 12.6365C6.31607 13.1991 6 13.9622 6 14.7579V19.7579H3C2.73478 19.7579 2.48043 19.6525 2.29289 19.465C2.10536 19.2774 2 19.0231 2 18.7579V8.58586L8.293 2.29286C8.48053 2.10539 8.73484 2.00007 9 2.00007C9.26516 2.00007 9.51947 2.10539 9.707 2.29286Z" fill="white"/>
</svg>
