<svg width="32" height="32" viewBox="0 0 32 32" fill="none" xmlns="http://www.w3.org/2000/svg">
<path d="M13.528 4.33066C13.7272 3.83827 14.069 3.4166 14.5094 3.11969C14.9498 2.82278 15.4689 2.66415 16 2.66415C16.5312 2.66415 17.0502 2.82278 17.4907 3.11969C17.9311 3.4166 18.2728 3.83827 18.472 4.33066C20.4437 4.8729 22.1828 6.0474 23.4224 7.67377C24.6619 9.30014 25.3333 11.2884 25.3333 13.3333V19.596L27.776 23.26C27.91 23.4608 27.9869 23.6942 27.9986 23.9353C28.0104 24.1764 27.9564 24.4162 27.8425 24.629C27.7286 24.8419 27.5591 25.0198 27.352 25.1438C27.1449 25.2679 26.9081 25.3334 26.6667 25.3333H20.62C20.4595 26.4441 19.9041 27.4599 19.0556 28.1946C18.2071 28.9292 17.1224 29.3336 16 29.3336C14.8777 29.3336 13.7929 28.9292 12.9444 28.1946C12.0959 27.4599 11.5406 26.4441 11.38 25.3333H5.33335C5.09196 25.3334 4.85509 25.2679 4.648 25.1438C4.44092 25.0198 4.2714 24.8419 4.15752 24.629C4.04364 24.4162 3.98968 24.1764 4.00139 23.9353C4.0131 23.6942 4.09004 23.4608 4.22402 23.26L6.66668 19.596V13.3333C6.66668 9.03466 9.57335 5.41332 13.528 4.33066ZM14.1147 25.3333C14.2524 25.7235 14.5077 26.0614 14.8455 26.3004C15.1833 26.5394 15.5869 26.6677 16.0007 26.6677C16.4145 26.6677 16.8181 26.5394 17.1559 26.3004C17.4936 26.0614 17.749 25.7235 17.8867 25.3333H14.1133H14.1147ZM16 6.66666C14.2319 6.66666 12.5362 7.36904 11.286 8.61928C10.0357 9.86952 9.33335 11.5652 9.33335 13.3333V20C9.33341 20.2634 9.25546 20.5209 9.10935 20.74L7.82535 22.6667H24.1733L22.8893 20.74C22.7437 20.5207 22.6662 20.2632 22.6667 20V13.3333C22.6667 11.5652 21.9643 9.86952 20.7141 8.61928C19.4638 7.36904 17.7681 6.66666 16 6.66666Z" fill="#3B849C"/>
</svg>
