<svg width="12" height="7" viewBox="0 0 12 7" fill="none" xmlns="http://www.w3.org/2000/svg">
<path d="M5.95803 7.00001C5.81553 7.00001 5.67767 6.9733 5.54444 6.91986C5.41049 6.86642 5.29899 6.79518 5.20993 6.70612L0.293893 1.79008C0.0979641 1.59415 0 1.34479 0 1.04199C0 0.739187 0.0979641 0.489822 0.293893 0.293893C0.489822 0.0979641 0.739187 0 1.04199 0C1.34479 0 1.59415 0.0979641 1.79008 0.293893L5.95803 4.46184L10.126 0.293893C10.3219 0.0979641 10.5713 0 10.8741 0C11.1769 0 11.4262 0.0979641 11.6222 0.293893C11.8181 0.489822 11.9161 0.739187 11.9161 1.04199C11.9161 1.34479 11.8181 1.59415 11.6222 1.79008L6.70612 6.70612C6.59925 6.81299 6.48347 6.88851 6.35879 6.93268C6.23411 6.97757 6.10052 7.00001 5.95803 7.00001Z" fill="black"/>
</svg>
